<svg xmlns="http://www.w3.org/2000/svg" xmlns:xlink="http://www.w3.org/1999/xlink" width="320" height="320" viewBox="0 0 320 320">
  <defs>
    <linearGradient id="linear-gradient" x1="0.584" y1="0.388" x2="0.064" y2="0.6" gradientUnits="objectBoundingBox">
      <stop offset="0" stop-color="#0fa"/>
      <stop offset="1" stop-color="#00dcff"/>
    </linearGradient>
    <linearGradient id="linear-gradient-2" x1="1.043" y1="0.894" x2="-0.033" y2="0.114" gradientUnits="objectBoundingBox">
      <stop offset="0" stop-color="#283568"/>
      <stop offset="1" stop-color="#639"/>
    </linearGradient>
  </defs>
  <g id="ico-gps" transform="translate(-20 -88)">
    <rect id="Rectangle_4639" data-name="Rectangle 4639" width="320" height="320" transform="translate(20 88)" fill="none"/>
    <g id="img-gps" transform="translate(9.889 -25)">
      <g id="launch-bg-up" transform="translate(535.457 -5380.904)">
        <g id="Group_5145" data-name="Group 5145" transform="translate(-375.456 5520.905)">
          <path id="Path_14392" data-name="Path 14392" d="M11.389,5835.271a3.367,3.367,0,1,0-3.366,3.368A3.367,3.367,0,0,0,11.389,5835.271Z" transform="translate(158.611 -5770.217)" fill="#e2e8ef"/>
          <path id="Path_14393" data-name="Path 14393" d="M-6.547,5835.271a3.367,3.367,0,0,0-3.367-3.367,3.367,3.367,0,0,0-3.367,3.367,3.369,3.369,0,0,0,3.367,3.368A3.368,3.368,0,0,0-6.547,5835.271Z" transform="translate(160.094 -5770.217)" fill="#e2e8ef"/>
          <path id="Path_14394" data-name="Path 14394" d="M-24.483,5835.271a3.367,3.367,0,0,0-3.367-3.367,3.367,3.367,0,0,0-3.367,3.367,3.369,3.369,0,0,0,3.367,3.368A3.369,3.369,0,0,0-24.483,5835.271Z" transform="translate(161.894 -5770.217)" fill="#e2e8ef"/>
          <path id="Path_14395" data-name="Path 14395" d="M-42.42,5835.271a3.367,3.367,0,0,0-3.367-3.367,3.367,3.367,0,0,0-3.366,3.367,3.368,3.368,0,0,0,3.366,3.368A3.368,3.368,0,0,0-42.42,5835.271Z" transform="translate(163.536 -5770.217)" fill="#e2e8ef"/>
          <path id="Path_14396" data-name="Path 14396" d="M-60.356,5835.271a3.367,3.367,0,0,0-3.367-3.367,3.367,3.367,0,0,0-3.366,3.367,3.368,3.368,0,0,0,3.366,3.368A3.369,3.369,0,0,0-60.356,5835.271Z" transform="translate(165.177 -5770.217)" fill="#e2e8ef"/>
          <path id="Path_14397" data-name="Path 14397" d="M-78.292,5835.271a3.367,3.367,0,0,0-3.367-3.367,3.367,3.367,0,0,0-3.367,3.367,3.369,3.369,0,0,0,3.367,3.368A3.369,3.369,0,0,0-78.292,5835.271Z" transform="translate(166.819 -5770.217)" fill="#e2e8ef"/>
          <path id="Path_14398" data-name="Path 14398" d="M-96.229,5835.271A3.367,3.367,0,0,0-99.6,5831.9a3.367,3.367,0,0,0-3.367,3.367,3.368,3.368,0,0,0,3.367,3.368A3.368,3.368,0,0,0-96.229,5835.271Z" transform="translate(168.46 -5770.217)" fill="#e2e8ef"/>
          <path id="Path_14399" data-name="Path 14399" d="M-114.165,5835.271a3.367,3.367,0,0,0-3.367-3.367,3.367,3.367,0,0,0-3.367,3.367,3.368,3.368,0,0,0,3.367,3.368A3.368,3.368,0,0,0-114.165,5835.271Z" transform="translate(170.101 -5770.217)" fill="#e2e8ef"/>
          <path id="Path_14400" data-name="Path 14400" d="M-132.1,5835.271a3.367,3.367,0,0,0-3.367-3.367,3.367,3.367,0,0,0-3.367,3.367,3.369,3.369,0,0,0,3.367,3.368A3.369,3.369,0,0,0-132.1,5835.271Z" transform="translate(171.743 -5770.217)" fill="#e2e8ef"/>
          <path id="Path_14401" data-name="Path 14401" d="M-150.038,5835.271a3.367,3.367,0,0,0-3.367-3.367,3.367,3.367,0,0,0-3.367,3.367,3.368,3.368,0,0,0,3.367,3.368A3.368,3.368,0,0,0-150.038,5835.271Z" transform="translate(173.546 -5770.217)" fill="#e2e8ef"/>
          <path id="Path_14402" data-name="Path 14402" d="M11.389,5858.107a3.367,3.367,0,1,0-3.366,3.366A3.367,3.367,0,0,0,11.389,5858.107Z" transform="translate(158.611 -5772.335)" fill="#e2e8ef"/>
          <path id="Path_14403" data-name="Path 14403" d="M-6.547,5858.107a3.367,3.367,0,0,0-3.367-3.368,3.368,3.368,0,0,0-3.367,3.368,3.366,3.366,0,0,0,3.367,3.366A3.366,3.366,0,0,0-6.547,5858.107Z" transform="translate(160.094 -5772.335)" fill="#e2e8ef"/>
          <path id="Path_14404" data-name="Path 14404" d="M-24.483,5858.107a3.368,3.368,0,0,0-3.367-3.368,3.368,3.368,0,0,0-3.367,3.368,3.366,3.366,0,0,0,3.367,3.366A3.366,3.366,0,0,0-24.483,5858.107Z" transform="translate(161.894 -5772.335)" fill="#e2e8ef"/>
          <path id="Path_14405" data-name="Path 14405" d="M-42.42,5858.107a3.367,3.367,0,0,0-3.367-3.368,3.367,3.367,0,0,0-3.366,3.368,3.365,3.365,0,0,0,3.366,3.366A3.366,3.366,0,0,0-42.42,5858.107Z" transform="translate(163.536 -5772.335)" fill="#e2e8ef"/>
          <path id="Path_14406" data-name="Path 14406" d="M-60.356,5858.107a3.368,3.368,0,0,0-3.367-3.368,3.367,3.367,0,0,0-3.366,3.368,3.365,3.365,0,0,0,3.366,3.366A3.366,3.366,0,0,0-60.356,5858.107Z" transform="translate(165.177 -5772.335)" fill="#e2e8ef"/>
          <path id="Path_14407" data-name="Path 14407" d="M-78.292,5858.107a3.368,3.368,0,0,0-3.367-3.368,3.368,3.368,0,0,0-3.367,3.368,3.366,3.366,0,0,0,3.367,3.366A3.366,3.366,0,0,0-78.292,5858.107Z" transform="translate(166.819 -5772.335)" fill="#e2e8ef"/>
          <path id="Path_14408" data-name="Path 14408" d="M-96.229,5858.107a3.367,3.367,0,0,0-3.366-3.368,3.367,3.367,0,0,0-3.367,3.368,3.366,3.366,0,0,0,3.367,3.366A3.365,3.365,0,0,0-96.229,5858.107Z" transform="translate(168.46 -5772.335)" fill="#e2e8ef"/>
          <path id="Path_14409" data-name="Path 14409" d="M-114.165,5858.107a3.367,3.367,0,0,0-3.367-3.368,3.367,3.367,0,0,0-3.367,3.368,3.365,3.365,0,0,0,3.367,3.366A3.366,3.366,0,0,0-114.165,5858.107Z" transform="translate(170.101 -5772.335)" fill="#e2e8ef"/>
          <path id="Path_14410" data-name="Path 14410" d="M-132.1,5858.107a3.368,3.368,0,0,0-3.367-3.368,3.368,3.368,0,0,0-3.367,3.368,3.366,3.366,0,0,0,3.367,3.366A3.366,3.366,0,0,0-132.1,5858.107Z" transform="translate(171.743 -5772.335)" fill="#e2e8ef"/>
          <path id="Path_14411" data-name="Path 14411" d="M-150.038,5858.107a3.367,3.367,0,0,0-3.367-3.368,3.367,3.367,0,0,0-3.367,3.368,3.366,3.366,0,0,0,3.367,3.366A3.365,3.365,0,0,0-150.038,5858.107Z" transform="translate(173.546 -5772.335)" fill="#e2e8ef"/>
          <path id="Path_14412" data-name="Path 14412" d="M11.389,5880.941a3.367,3.367,0,1,0-3.366,3.368A3.367,3.367,0,0,0,11.389,5880.941Z" transform="translate(158.611 -5774.456)" fill="#e2e8ef"/>
          <path id="Path_14413" data-name="Path 14413" d="M-6.547,5880.941a3.367,3.367,0,0,0-3.367-3.367,3.368,3.368,0,0,0-3.367,3.367,3.369,3.369,0,0,0,3.367,3.368A3.368,3.368,0,0,0-6.547,5880.941Z" transform="translate(160.094 -5774.456)" fill="#e2e8ef"/>
          <path id="Path_14414" data-name="Path 14414" d="M-24.483,5880.941a3.368,3.368,0,0,0-3.367-3.367,3.368,3.368,0,0,0-3.367,3.367,3.369,3.369,0,0,0,3.367,3.368A3.369,3.369,0,0,0-24.483,5880.941Z" transform="translate(161.894 -5774.456)" fill="#e2e8ef"/>
          <path id="Path_14415" data-name="Path 14415" d="M-42.42,5880.941a3.367,3.367,0,0,0-3.367-3.367,3.367,3.367,0,0,0-3.366,3.367,3.368,3.368,0,0,0,3.366,3.368A3.368,3.368,0,0,0-42.42,5880.941Z" transform="translate(163.536 -5774.456)" fill="#e2e8ef"/>
          <path id="Path_14416" data-name="Path 14416" d="M-60.356,5880.941a3.368,3.368,0,0,0-3.367-3.367,3.367,3.367,0,0,0-3.366,3.367,3.368,3.368,0,0,0,3.366,3.368A3.369,3.369,0,0,0-60.356,5880.941Z" transform="translate(165.177 -5774.456)" fill="#e2e8ef"/>
          <path id="Path_14417" data-name="Path 14417" d="M-78.292,5880.941a3.368,3.368,0,0,0-3.367-3.367,3.368,3.368,0,0,0-3.367,3.367,3.369,3.369,0,0,0,3.367,3.368A3.369,3.369,0,0,0-78.292,5880.941Z" transform="translate(166.819 -5774.456)" fill="#e2e8ef"/>
          <path id="Path_14418" data-name="Path 14418" d="M-96.229,5880.941a3.367,3.367,0,0,0-3.366-3.367,3.367,3.367,0,0,0-3.367,3.367,3.368,3.368,0,0,0,3.367,3.368A3.368,3.368,0,0,0-96.229,5880.941Z" transform="translate(168.46 -5774.456)" fill="#e2e8ef"/>
          <path id="Path_14419" data-name="Path 14419" d="M-114.165,5880.941a3.367,3.367,0,0,0-3.367-3.367,3.367,3.367,0,0,0-3.367,3.367,3.368,3.368,0,0,0,3.367,3.368A3.368,3.368,0,0,0-114.165,5880.941Z" transform="translate(170.101 -5774.456)" fill="#e2e8ef"/>
          <path id="Path_14420" data-name="Path 14420" d="M-132.1,5880.941a3.368,3.368,0,0,0-3.367-3.367,3.368,3.368,0,0,0-3.367,3.367,3.369,3.369,0,0,0,3.367,3.368A3.369,3.369,0,0,0-132.1,5880.941Z" transform="translate(171.743 -5774.456)" fill="#e2e8ef"/>
          <path id="Path_14421" data-name="Path 14421" d="M-150.038,5880.941a3.367,3.367,0,0,0-3.367-3.367,3.367,3.367,0,0,0-3.367,3.367,3.368,3.368,0,0,0,3.367,3.368A3.368,3.368,0,0,0-150.038,5880.941Z" transform="translate(173.546 -5774.456)" fill="#e2e8ef"/>
          <path id="Path_14422" data-name="Path 14422" d="M11.389,5903.778a3.367,3.367,0,1,0-3.366,3.366A3.367,3.367,0,0,0,11.389,5903.778Z" transform="translate(158.611 -5776.576)" fill="#e2e8ef"/>
          <path id="Path_14423" data-name="Path 14423" d="M-6.547,5903.778a3.368,3.368,0,0,0-3.367-3.368,3.368,3.368,0,0,0-3.367,3.368,3.366,3.366,0,0,0,3.367,3.366A3.366,3.366,0,0,0-6.547,5903.778Z" transform="translate(160.094 -5776.576)" fill="#e2e8ef"/>
          <path id="Path_14424" data-name="Path 14424" d="M-24.483,5903.778a3.368,3.368,0,0,0-3.367-3.368,3.368,3.368,0,0,0-3.367,3.368,3.366,3.366,0,0,0,3.367,3.366A3.366,3.366,0,0,0-24.483,5903.778Z" transform="translate(161.894 -5776.576)" fill="#e2e8ef"/>
          <path id="Path_14425" data-name="Path 14425" d="M-42.42,5903.778a3.368,3.368,0,0,0-3.367-3.368,3.367,3.367,0,0,0-3.366,3.368,3.366,3.366,0,0,0,3.366,3.366A3.366,3.366,0,0,0-42.42,5903.778Z" transform="translate(163.536 -5776.576)" fill="#e2e8ef"/>
          <path id="Path_14426" data-name="Path 14426" d="M-60.356,5903.778a3.368,3.368,0,0,0-3.367-3.368,3.367,3.367,0,0,0-3.366,3.368,3.366,3.366,0,0,0,3.366,3.366A3.366,3.366,0,0,0-60.356,5903.778Z" transform="translate(165.177 -5776.576)" fill="#e2e8ef"/>
          <path id="Path_14427" data-name="Path 14427" d="M-78.292,5903.778a3.368,3.368,0,0,0-3.367-3.368,3.368,3.368,0,0,0-3.367,3.368,3.366,3.366,0,0,0,3.367,3.366A3.366,3.366,0,0,0-78.292,5903.778Z" transform="translate(166.819 -5776.576)" fill="#e2e8ef"/>
          <path id="Path_14428" data-name="Path 14428" d="M-96.229,5903.778a3.367,3.367,0,0,0-3.366-3.368,3.368,3.368,0,0,0-3.367,3.368,3.366,3.366,0,0,0,3.367,3.366A3.366,3.366,0,0,0-96.229,5903.778Z" transform="translate(168.46 -5776.576)" fill="#e2e8ef"/>
          <path id="Path_14429" data-name="Path 14429" d="M-114.165,5903.778a3.368,3.368,0,0,0-3.367-3.368,3.367,3.367,0,0,0-3.367,3.368,3.366,3.366,0,0,0,3.367,3.366A3.366,3.366,0,0,0-114.165,5903.778Z" transform="translate(170.101 -5776.576)" fill="#e2e8ef"/>
          <path id="Path_14430" data-name="Path 14430" d="M-132.1,5903.778a3.368,3.368,0,0,0-3.367-3.368,3.368,3.368,0,0,0-3.367,3.368,3.366,3.366,0,0,0,3.367,3.366A3.366,3.366,0,0,0-132.1,5903.778Z" transform="translate(171.743 -5776.576)" fill="#e2e8ef"/>
          <path id="Path_14431" data-name="Path 14431" d="M-150.038,5903.778a3.367,3.367,0,0,0-3.367-3.368,3.368,3.368,0,0,0-3.367,3.368,3.366,3.366,0,0,0,3.367,3.366A3.366,3.366,0,0,0-150.038,5903.778Z" transform="translate(173.546 -5776.576)" fill="#e2e8ef"/>
          <path id="Path_14432" data-name="Path 14432" d="M11.389,5926.614a3.367,3.367,0,1,0-3.366,3.366A3.367,3.367,0,0,0,11.389,5926.614Z" transform="translate(158.611 -5778.927)" fill="#e2e8ef"/>
          <path id="Path_14433" data-name="Path 14433" d="M-6.547,5926.614a3.367,3.367,0,0,0-3.367-3.37,3.368,3.368,0,0,0-3.367,3.37,3.367,3.367,0,0,0,3.367,3.366A3.367,3.367,0,0,0-6.547,5926.614Z" transform="translate(160.094 -5778.927)" fill="#e2e8ef"/>
          <path id="Path_14434" data-name="Path 14434" d="M-24.483,5926.614a3.368,3.368,0,0,0-3.367-3.37,3.368,3.368,0,0,0-3.367,3.37,3.367,3.367,0,0,0,3.367,3.366A3.367,3.367,0,0,0-24.483,5926.614Z" transform="translate(161.894 -5778.927)" fill="#e2e8ef"/>
          <path id="Path_14435" data-name="Path 14435" d="M-42.42,5926.614a3.367,3.367,0,0,0-3.367-3.37,3.367,3.367,0,0,0-3.366,3.37,3.367,3.367,0,0,0,3.366,3.366A3.367,3.367,0,0,0-42.42,5926.614Z" transform="translate(163.536 -5778.927)" fill="#e2e8ef"/>
          <path id="Path_14436" data-name="Path 14436" d="M-60.356,5926.614a3.368,3.368,0,0,0-3.367-3.37,3.367,3.367,0,0,0-3.366,3.37,3.367,3.367,0,0,0,3.366,3.366A3.367,3.367,0,0,0-60.356,5926.614Z" transform="translate(165.177 -5778.927)" fill="#e2e8ef"/>
          <path id="Path_14437" data-name="Path 14437" d="M-78.292,5926.614a3.368,3.368,0,0,0-3.367-3.37,3.368,3.368,0,0,0-3.367,3.37,3.367,3.367,0,0,0,3.367,3.366A3.367,3.367,0,0,0-78.292,5926.614Z" transform="translate(166.819 -5778.927)" fill="#e2e8ef"/>
          <path id="Path_14438" data-name="Path 14438" d="M-96.229,5926.614a3.367,3.367,0,0,0-3.366-3.37,3.367,3.367,0,0,0-3.367,3.37,3.367,3.367,0,0,0,3.367,3.366A3.367,3.367,0,0,0-96.229,5926.614Z" transform="translate(168.46 -5778.927)" fill="#e2e8ef"/>
          <path id="Path_14439" data-name="Path 14439" d="M-114.165,5926.614a3.367,3.367,0,0,0-3.367-3.37,3.367,3.367,0,0,0-3.367,3.37,3.367,3.367,0,0,0,3.367,3.366A3.367,3.367,0,0,0-114.165,5926.614Z" transform="translate(170.101 -5778.927)" fill="#e2e8ef"/>
          <path id="Path_14440" data-name="Path 14440" d="M-132.1,5926.614a3.368,3.368,0,0,0-3.367-3.37,3.368,3.368,0,0,0-3.367,3.37,3.367,3.367,0,0,0,3.367,3.366A3.367,3.367,0,0,0-132.1,5926.614Z" transform="translate(171.743 -5778.927)" fill="#e2e8ef"/>
          <path id="Path_14441" data-name="Path 14441" d="M-150.038,5926.614a3.367,3.367,0,0,0-3.367-3.37,3.367,3.367,0,0,0-3.367,3.37,3.367,3.367,0,0,0,3.367,3.366A3.367,3.367,0,0,0-150.038,5926.614Z" transform="translate(173.546 -5778.927)" fill="#e2e8ef"/>
          <path id="Path_14442" data-name="Path 14442" d="M4.655,5949.448a3.367,3.367,0,1,0,3.367-3.369A3.367,3.367,0,0,0,4.655,5949.448Z" transform="translate(158.611 -5780.815)" fill="#e2e8ef"/>
          <path id="Path_14443" data-name="Path 14443" d="M-6.547,5949.448a3.368,3.368,0,0,0-3.367-3.369,3.369,3.369,0,0,0-3.367,3.369,3.368,3.368,0,0,0,3.367,3.367A3.367,3.367,0,0,0-6.547,5949.448Z" transform="translate(160.094 -5780.815)" fill="#e2e8ef"/>
          <path id="Path_14444" data-name="Path 14444" d="M-24.483,5949.448a3.369,3.369,0,0,0-3.367-3.369,3.369,3.369,0,0,0-3.367,3.369,3.368,3.368,0,0,0,3.367,3.367A3.368,3.368,0,0,0-24.483,5949.448Z" transform="translate(161.894 -5780.815)" fill="#e2e8ef"/>
          <path id="Path_14445" data-name="Path 14445" d="M-42.42,5949.448a3.368,3.368,0,0,0-3.367-3.369,3.368,3.368,0,0,0-3.366,3.369,3.367,3.367,0,0,0,3.366,3.367A3.367,3.367,0,0,0-42.42,5949.448Z" transform="translate(163.536 -5780.815)" fill="#e2e8ef"/>
          <path id="Path_14446" data-name="Path 14446" d="M-60.356,5949.448a3.369,3.369,0,0,0-3.367-3.369,3.368,3.368,0,0,0-3.366,3.369,3.367,3.367,0,0,0,3.366,3.367A3.368,3.368,0,0,0-60.356,5949.448Z" transform="translate(165.177 -5780.815)" fill="#e2e8ef"/>
          <path id="Path_14447" data-name="Path 14447" d="M-78.292,5949.448a3.369,3.369,0,0,0-3.367-3.369,3.369,3.369,0,0,0-3.367,3.369,3.368,3.368,0,0,0,3.367,3.367A3.368,3.368,0,0,0-78.292,5949.448Z" transform="translate(166.819 -5780.815)" fill="#e2e8ef"/>
          <path id="Path_14448" data-name="Path 14448" d="M-96.229,5949.448a3.368,3.368,0,0,0-3.366-3.369,3.368,3.368,0,0,0-3.367,3.369,3.367,3.367,0,0,0,3.367,3.367A3.367,3.367,0,0,0-96.229,5949.448Z" transform="translate(168.46 -5780.815)" fill="#e2e8ef"/>
          <path id="Path_14449" data-name="Path 14449" d="M-114.165,5949.448a3.368,3.368,0,0,0-3.367-3.369,3.368,3.368,0,0,0-3.367,3.369,3.367,3.367,0,0,0,3.367,3.367A3.367,3.367,0,0,0-114.165,5949.448Z" transform="translate(170.101 -5780.815)" fill="#e2e8ef"/>
          <path id="Path_14450" data-name="Path 14450" d="M-132.1,5949.448a3.369,3.369,0,0,0-3.367-3.369,3.369,3.369,0,0,0-3.367,3.369,3.368,3.368,0,0,0,3.367,3.367A3.368,3.368,0,0,0-132.1,5949.448Z" transform="translate(171.743 -5780.815)" fill="#e2e8ef"/>
          <path id="Path_14451" data-name="Path 14451" d="M-150.038,5949.448a3.368,3.368,0,0,0-3.367-3.369,3.368,3.368,0,0,0-3.367,3.369,3.367,3.367,0,0,0,3.367,3.367A3.367,3.367,0,0,0-150.038,5949.448Z" transform="translate(173.546 -5780.815)" fill="#e2e8ef"/>
          <path id="Path_14452" data-name="Path 14452" d="M-168.323,5835.271a3.367,3.367,0,0,0-3.367-3.367,3.367,3.367,0,0,0-3.367,3.367,3.369,3.369,0,0,0,3.367,3.368A3.369,3.369,0,0,0-168.323,5835.271Z" transform="translate(175.058 -5770.217)" fill="#e2e8ef"/>
          <path id="Path_14453" data-name="Path 14453" d="M-168.323,5858.107a3.368,3.368,0,0,0-3.367-3.368,3.368,3.368,0,0,0-3.367,3.368,3.366,3.366,0,0,0,3.367,3.366A3.366,3.366,0,0,0-168.323,5858.107Z" transform="translate(175.058 -5772.335)" fill="#e2e8ef"/>
          <path id="Path_14454" data-name="Path 14454" d="M-168.323,5880.941a3.368,3.368,0,0,0-3.367-3.367,3.368,3.368,0,0,0-3.367,3.367,3.369,3.369,0,0,0,3.367,3.368A3.369,3.369,0,0,0-168.323,5880.941Z" transform="translate(175.058 -5774.456)" fill="#e2e8ef"/>
          <path id="Path_14455" data-name="Path 14455" d="M-168.323,5903.778a3.368,3.368,0,0,0-3.367-3.368,3.368,3.368,0,0,0-3.367,3.368,3.366,3.366,0,0,0,3.367,3.366A3.366,3.366,0,0,0-168.323,5903.778Z" transform="translate(175.058 -5776.576)" fill="#e2e8ef"/>
          <path id="Path_14456" data-name="Path 14456" d="M-168.323,5926.614a3.368,3.368,0,0,0-3.367-3.37,3.368,3.368,0,0,0-3.367,3.37,3.367,3.367,0,0,0,3.367,3.366A3.367,3.367,0,0,0-168.323,5926.614Z" transform="translate(175.058 -5778.927)" fill="#e2e8ef"/>
          <path id="Path_14457" data-name="Path 14457" d="M-168.323,5949.448a3.369,3.369,0,0,0-3.367-3.369,3.369,3.369,0,0,0-3.367,3.369,3.368,3.368,0,0,0,3.367,3.367A3.368,3.368,0,0,0-168.323,5949.448Z" transform="translate(175.058 -5780.815)" fill="#e2e8ef"/>
          <path id="Path_14458" data-name="Path 14458" d="M11.389,5789.271a3.367,3.367,0,1,0-3.366,3.367A3.367,3.367,0,0,0,11.389,5789.271Z" transform="translate(158.611 -5765.723)" fill="#e2e8ef"/>
          <path id="Path_14459" data-name="Path 14459" d="M-6.547,5789.271a3.367,3.367,0,0,0-3.367-3.368,3.368,3.368,0,0,0-3.367,3.368,3.367,3.367,0,0,0,3.367,3.367A3.366,3.366,0,0,0-6.547,5789.271Z" transform="translate(160.094 -5765.723)" fill="#e2e8ef"/>
          <path id="Path_14460" data-name="Path 14460" d="M-24.483,5789.271a3.368,3.368,0,0,0-3.367-3.368,3.368,3.368,0,0,0-3.367,3.368,3.367,3.367,0,0,0,3.367,3.367A3.367,3.367,0,0,0-24.483,5789.271Z" transform="translate(161.894 -5765.723)" fill="#e2e8ef"/>
          <path id="Path_14461" data-name="Path 14461" d="M-42.42,5789.271a3.367,3.367,0,0,0-3.367-3.368,3.367,3.367,0,0,0-3.366,3.368,3.366,3.366,0,0,0,3.366,3.367A3.366,3.366,0,0,0-42.42,5789.271Z" transform="translate(163.536 -5765.723)" fill="#e2e8ef"/>
          <path id="Path_14462" data-name="Path 14462" d="M-60.356,5789.271a3.368,3.368,0,0,0-3.367-3.368,3.367,3.367,0,0,0-3.366,3.368,3.366,3.366,0,0,0,3.366,3.367A3.367,3.367,0,0,0-60.356,5789.271Z" transform="translate(165.177 -5765.723)" fill="#e2e8ef"/>
          <path id="Path_14463" data-name="Path 14463" d="M-78.292,5789.271a3.368,3.368,0,0,0-3.367-3.368,3.368,3.368,0,0,0-3.367,3.368,3.367,3.367,0,0,0,3.367,3.367A3.367,3.367,0,0,0-78.292,5789.271Z" transform="translate(166.819 -5765.723)" fill="#e2e8ef"/>
          <path id="Path_14464" data-name="Path 14464" d="M-96.229,5789.271A3.367,3.367,0,0,0-99.6,5785.9a3.367,3.367,0,0,0-3.367,3.368,3.366,3.366,0,0,0,3.367,3.367A3.366,3.366,0,0,0-96.229,5789.271Z" transform="translate(168.46 -5765.723)" fill="#e2e8ef"/>
          <path id="Path_14465" data-name="Path 14465" d="M-114.165,5789.271a3.367,3.367,0,0,0-3.367-3.368,3.367,3.367,0,0,0-3.367,3.368,3.366,3.366,0,0,0,3.367,3.367A3.366,3.366,0,0,0-114.165,5789.271Z" transform="translate(170.101 -5765.723)" fill="#e2e8ef"/>
          <path id="Path_14466" data-name="Path 14466" d="M-132.1,5789.271a3.368,3.368,0,0,0-3.367-3.368,3.368,3.368,0,0,0-3.367,3.368,3.367,3.367,0,0,0,3.367,3.367A3.367,3.367,0,0,0-132.1,5789.271Z" transform="translate(171.743 -5765.723)" fill="#e2e8ef"/>
          <path id="Path_14467" data-name="Path 14467" d="M-150.038,5789.271a3.367,3.367,0,0,0-3.367-3.368,3.367,3.367,0,0,0-3.367,3.368,3.366,3.366,0,0,0,3.367,3.367A3.366,3.366,0,0,0-150.038,5789.271Z" transform="translate(173.546 -5765.723)" fill="#e2e8ef"/>
          <path id="Path_14468" data-name="Path 14468" d="M11.389,5812.107a3.367,3.367,0,1,0-3.366,3.366A3.366,3.366,0,0,0,11.389,5812.107Z" transform="translate(158.611 -5768.067)" fill="#e2e8ef"/>
          <path id="Path_14469" data-name="Path 14469" d="M-6.547,5812.107a3.366,3.366,0,0,0-3.367-3.366,3.367,3.367,0,0,0-3.367,3.366,3.367,3.367,0,0,0,3.367,3.366A3.367,3.367,0,0,0-6.547,5812.107Z" transform="translate(160.094 -5768.067)" fill="#e2e8ef"/>
          <path id="Path_14470" data-name="Path 14470" d="M-24.483,5812.107a3.367,3.367,0,0,0-3.367-3.366,3.367,3.367,0,0,0-3.367,3.366,3.367,3.367,0,0,0,3.367,3.366A3.367,3.367,0,0,0-24.483,5812.107Z" transform="translate(161.894 -5768.067)" fill="#e2e8ef"/>
          <path id="Path_14471" data-name="Path 14471" d="M-42.42,5812.107a3.366,3.366,0,0,0-3.367-3.366,3.366,3.366,0,0,0-3.366,3.366,3.366,3.366,0,0,0,3.366,3.366A3.367,3.367,0,0,0-42.42,5812.107Z" transform="translate(163.536 -5768.067)" fill="#e2e8ef"/>
          <path id="Path_14472" data-name="Path 14472" d="M-60.356,5812.107a3.367,3.367,0,0,0-3.367-3.366,3.366,3.366,0,0,0-3.366,3.366,3.366,3.366,0,0,0,3.366,3.366A3.367,3.367,0,0,0-60.356,5812.107Z" transform="translate(165.177 -5768.067)" fill="#e2e8ef"/>
          <path id="Path_14473" data-name="Path 14473" d="M-78.292,5812.107a3.367,3.367,0,0,0-3.367-3.366,3.367,3.367,0,0,0-3.367,3.366,3.367,3.367,0,0,0,3.367,3.366A3.367,3.367,0,0,0-78.292,5812.107Z" transform="translate(166.819 -5768.067)" fill="#e2e8ef"/>
          <path id="Path_14474" data-name="Path 14474" d="M-96.229,5812.107a3.366,3.366,0,0,0-3.366-3.366,3.366,3.366,0,0,0-3.367,3.366,3.367,3.367,0,0,0,3.367,3.366A3.366,3.366,0,0,0-96.229,5812.107Z" transform="translate(168.46 -5768.067)" fill="#e2e8ef"/>
          <path id="Path_14475" data-name="Path 14475" d="M-114.165,5812.107a3.366,3.366,0,0,0-3.367-3.366,3.366,3.366,0,0,0-3.367,3.366,3.366,3.366,0,0,0,3.367,3.366A3.367,3.367,0,0,0-114.165,5812.107Z" transform="translate(170.101 -5768.067)" fill="#e2e8ef"/>
          <path id="Path_14476" data-name="Path 14476" d="M-132.1,5812.107a3.367,3.367,0,0,0-3.367-3.366,3.367,3.367,0,0,0-3.367,3.366,3.367,3.367,0,0,0,3.367,3.366A3.367,3.367,0,0,0-132.1,5812.107Z" transform="translate(171.743 -5768.067)" fill="#e2e8ef"/>
          <path id="Path_14477" data-name="Path 14477" d="M-150.038,5812.107a3.366,3.366,0,0,0-3.367-3.366,3.366,3.366,0,0,0-3.367,3.366,3.367,3.367,0,0,0,3.367,3.366A3.366,3.366,0,0,0-150.038,5812.107Z" transform="translate(173.546 -5768.067)" fill="#e2e8ef"/>
          <path id="Path_14478" data-name="Path 14478" d="M-168.323,5789.271a3.368,3.368,0,0,0-3.367-3.368,3.368,3.368,0,0,0-3.367,3.368,3.367,3.367,0,0,0,3.367,3.367A3.367,3.367,0,0,0-168.323,5789.271Z" transform="translate(175.058 -5765.723)" fill="#e2e8ef"/>
          <path id="Path_14479" data-name="Path 14479" d="M11.389,5767.271a3.367,3.367,0,1,0-3.366,3.368A3.367,3.367,0,0,0,11.389,5767.271Z" transform="translate(158.611 -5763.905)" fill="#e2e8ef"/>
          <path id="Path_14480" data-name="Path 14480" d="M-6.547,5767.271a3.367,3.367,0,0,0-3.367-3.367,3.367,3.367,0,0,0-3.367,3.367,3.368,3.368,0,0,0,3.367,3.368A3.368,3.368,0,0,0-6.547,5767.271Z" transform="translate(160.094 -5763.905)" fill="#e2e8ef"/>
          <path id="Path_14481" data-name="Path 14481" d="M-24.483,5767.271a3.367,3.367,0,0,0-3.367-3.367,3.367,3.367,0,0,0-3.367,3.367,3.368,3.368,0,0,0,3.367,3.368A3.368,3.368,0,0,0-24.483,5767.271Z" transform="translate(161.894 -5763.905)" fill="#e2e8ef"/>
          <path id="Path_14482" data-name="Path 14482" d="M-42.42,5767.271a3.367,3.367,0,0,0-3.367-3.367,3.367,3.367,0,0,0-3.366,3.367,3.367,3.367,0,0,0,3.366,3.368A3.368,3.368,0,0,0-42.42,5767.271Z" transform="translate(163.536 -5763.905)" fill="#e2e8ef"/>
          <path id="Path_14483" data-name="Path 14483" d="M-60.356,5767.271a3.367,3.367,0,0,0-3.367-3.367,3.367,3.367,0,0,0-3.366,3.367,3.367,3.367,0,0,0,3.366,3.368A3.368,3.368,0,0,0-60.356,5767.271Z" transform="translate(165.177 -5763.905)" fill="#e2e8ef"/>
          <path id="Path_14484" data-name="Path 14484" d="M-78.292,5767.271a3.367,3.367,0,0,0-3.367-3.367,3.367,3.367,0,0,0-3.367,3.367,3.368,3.368,0,0,0,3.367,3.368A3.368,3.368,0,0,0-78.292,5767.271Z" transform="translate(166.819 -5763.905)" fill="#e2e8ef"/>
          <path id="Path_14485" data-name="Path 14485" d="M-96.229,5767.271A3.367,3.367,0,0,0-99.6,5763.9a3.367,3.367,0,0,0-3.367,3.367,3.368,3.368,0,0,0,3.367,3.368A3.367,3.367,0,0,0-96.229,5767.271Z" transform="translate(168.46 -5763.905)" fill="#e2e8ef"/>
          <path id="Path_14486" data-name="Path 14486" d="M-114.165,5767.271a3.367,3.367,0,0,0-3.367-3.367,3.367,3.367,0,0,0-3.367,3.367,3.367,3.367,0,0,0,3.367,3.368A3.368,3.368,0,0,0-114.165,5767.271Z" transform="translate(170.101 -5763.905)" fill="#e2e8ef"/>
          <path id="Path_14487" data-name="Path 14487" d="M-132.1,5767.271a3.367,3.367,0,0,0-3.367-3.367,3.367,3.367,0,0,0-3.367,3.367,3.368,3.368,0,0,0,3.367,3.368A3.368,3.368,0,0,0-132.1,5767.271Z" transform="translate(171.743 -5763.905)" fill="#e2e8ef"/>
          <path id="Path_14488" data-name="Path 14488" d="M-150.038,5767.271a3.367,3.367,0,0,0-3.367-3.367,3.367,3.367,0,0,0-3.367,3.367,3.368,3.368,0,0,0,3.367,3.368A3.367,3.367,0,0,0-150.038,5767.271Z" transform="translate(173.546 -5763.905)" fill="#e2e8ef"/>
          <path id="Path_14489" data-name="Path 14489" d="M-168.323,5767.271a3.367,3.367,0,0,0-3.367-3.367,3.367,3.367,0,0,0-3.367,3.367,3.368,3.368,0,0,0,3.367,3.368A3.368,3.368,0,0,0-168.323,5767.271Z" transform="translate(175.058 -5763.905)" fill="#e2e8ef"/>
          <path id="Path_14490" data-name="Path 14490" d="M-168.323,5812.107a3.367,3.367,0,0,0-3.367-3.366,3.367,3.367,0,0,0-3.367,3.366,3.367,3.367,0,0,0,3.367,3.366A3.367,3.367,0,0,0-168.323,5812.107Z" transform="translate(175.058 -5768.067)" fill="#e2e8ef"/>
        </g>
      </g>
      <g id="Group_5179" data-name="Group 5179" transform="translate(-523.039 -24.045)">
        <path id="Path_14520" data-name="Path 14520" d="M843.6,240.6l-66.649,66.649L710.3,240.6h0a94.256,94.256,0,0,1,133.3,0Z" transform="translate(-73.453 0.179)" fill="url(#linear-gradient)"/>
        <path id="Path_14519" data-name="Path 14519" d="M636.862,314.482l66.9,66.9-66.9,66.9h0a94.614,94.614,0,0,1,0-133.8Z" transform="translate(0 -73.952)" fill="#00dcff"/>
        <path id="Path_14521" data-name="Path 14521" d="M950.862,655.7V561.085h94.614A94.614,94.614,0,0,1,950.862,655.7Z" transform="translate(-249.007 -253.653)" fill="url(#linear-gradient-2)"/>
        <circle id="Ellipse_2732" data-name="Ellipse 2732" cx="13.367" cy="13.367" r="13.367" transform="translate(688.488 295.338)" fill="#fff"/>
        <path id="Path_14522" data-name="Path 14522" d="M823.794,391.882c-30.84,0-47.307,25.954-47.307,47.307a46.671,46.671,0,0,0,13.856,33.451l33.451,33.451,33.451-33.451A46.671,46.671,0,0,0,871.1,439.189C871.1,417.836,854.634,391.882,823.794,391.882Zm0,67.032a20.16,20.16,0,1,1,20.16-20.16A20.159,20.159,0,0,1,823.794,458.914Z" transform="translate(-121.939 -130.354)" fill="#09f"/>
      </g>
    </g>
  </g>
</svg>
