<svg xmlns="http://www.w3.org/2000/svg" width="142.852" height="15.818" viewBox="0 0 142.852 15.818">
  <g id="title" transform="translate(-131.798 -267.336)">
    <path id="Path_14517" data-name="Path 14517" d="M-34.012-.792a.613.613,0,0,1,.044.264.623.623,0,0,1-.2.473.652.652,0,0,1-.462.187A.568.568,0,0,1-34.991,0a.826.826,0,0,1-.253-.374l-1.342-3.762h-8.426L-46.97-.286a.607.607,0,0,1-.594.4.634.634,0,0,1-.451-.176.579.579,0,0,1-.187-.44.781.781,0,0,1,.088-.352l7.348-14.234a.861.861,0,0,1,.814-.528.826.826,0,0,1,.484.154.92.92,0,0,1,.33.462ZM-37-5.324l-3.058-8.536-4.356,8.536ZM-26.972.154a4.891,4.891,0,0,1-2.519-.638,4.235,4.235,0,0,1-1.672-1.8,5.976,5.976,0,0,1-.583-2.706,7.2,7.2,0,0,1,.638-3.124A4.789,4.789,0,0,1-29.271-10.2a5.248,5.248,0,0,1,2.805-.737,6.268,6.268,0,0,1,2.057.33,4.245,4.245,0,0,1,1.507.836.752.752,0,0,1,.264.572.7.7,0,0,1-.165.462.49.49,0,0,1-.385.2.561.561,0,0,1-.33-.132,4.692,4.692,0,0,0-2.97-1.1,3.416,3.416,0,0,0-2.838,1.276A5.562,5.562,0,0,0-30.338-4.95a4.216,4.216,0,0,0,.913,2.871A3.249,3.249,0,0,0-26.84-1.034a3.881,3.881,0,0,0,1.485-.275,5.454,5.454,0,0,0,1.331-.8.658.658,0,0,1,.352-.132.512.512,0,0,1,.385.176.565.565,0,0,1,.165.4.61.61,0,0,1-.2.44A4.5,4.5,0,0,1-24.948-.209,5.717,5.717,0,0,1-26.972.154Zm8.1-3.916a3.326,3.326,0,0,0-.022.44A2.547,2.547,0,0,0-18.37-1.6,1.853,1.853,0,0,0-16.9-.99a4.36,4.36,0,0,0,.561-.033,3.205,3.205,0,0,1,.363-.033.4.4,0,0,1,.319.143.613.613,0,0,1,.121.407.5.5,0,0,1-.341.5,3.555,3.555,0,0,1-1.221.143,3.062,3.062,0,0,1-2.3-.869,3.336,3.336,0,0,1-.847-2.431,4.123,4.123,0,0,1,.022-.484l.462-5.94h-1.628a.559.559,0,0,1-.4-.143.528.528,0,0,1-.154-.407.5.5,0,0,1,.154-.385.559.559,0,0,1,.4-.143h1.694l.22-2.75a.758.758,0,0,1,.231-.44.663.663,0,0,1,.473-.176.632.632,0,0,1,.484.187.592.592,0,0,1,.154.473l-.22,2.706h2.684a.559.559,0,0,1,.4.143.5.5,0,0,1,.154.385.528.528,0,0,1-.154.407.59.59,0,0,1-.418.143h-2.728Zm5.7,3.872a.68.68,0,0,1-.484-.165.574.574,0,0,1-.132-.517l.77-9.7a.593.593,0,0,1,.231-.462.811.811,0,0,1,.495-.154.676.676,0,0,1,.462.154.528.528,0,0,1,.154.462l-.77,9.7a.766.766,0,0,1-.242.517A.731.731,0,0,1-13.178.11Zm1.166-13.486a.99.99,0,0,1-.715-.264A.9.9,0,0,1-13-14.322a.931.931,0,0,1,.275-.7.99.99,0,0,1,.715-.264.99.99,0,0,1,.715.264.931.931,0,0,1,.275.7.9.9,0,0,1-.275.682A.99.99,0,0,1-12.012-13.376Zm11.66,2.97A.606.606,0,0,1,.2-10.78a.658.658,0,0,1,.451.165.545.545,0,0,1,.187.429.654.654,0,0,1-.088.33L-4.2-.418a.958.958,0,0,1-.374.407.98.98,0,0,1-.506.143.927.927,0,0,1-.539-.176.969.969,0,0,1-.363-.484l-3.454-9.35a.613.613,0,0,1-.044-.264.564.564,0,0,1,.2-.44.674.674,0,0,1,.462-.176.587.587,0,0,1,.594.44l3.19,8.976Zm7.37-.528q3.652,0,3.652,3.52a5.284,5.284,0,0,1-.022.55L10.164-.506a.662.662,0,0,1-.2.451A.648.648,0,0,1,9.5.11a.649.649,0,0,1-.495-.2.637.637,0,0,1-.165-.506l.088-1.232A3.508,3.508,0,0,1,7.568-.363,3.921,3.921,0,0,1,5.544.154,3.909,3.909,0,0,1,2.926-.7,2.754,2.754,0,0,1,1.914-2.9a2.714,2.714,0,0,1,.649-1.914A3.926,3.926,0,0,1,4.642-5.841a18.434,18.434,0,0,1,3.85-.319h.77l.066-.748a4.123,4.123,0,0,0,.022-.484,2.436,2.436,0,0,0-.583-1.8,2.472,2.472,0,0,0-1.793-.572A6.823,6.823,0,0,0,3.366-8.58a.583.583,0,0,1-.286.088.448.448,0,0,1-.363-.176.642.642,0,0,1-.143-.418A.681.681,0,0,1,2.9-9.68a6.444,6.444,0,0,1,1.914-.913A7.542,7.542,0,0,1,7.018-10.934ZM5.764-1.012a3.162,3.162,0,0,0,2.31-.935A3.667,3.667,0,0,0,9.13-4.378L9.2-5.17H8.558a19.185,19.185,0,0,0-3.146.2A3.038,3.038,0,0,0,3.806-4.3a1.746,1.746,0,0,0-.484,1.309,1.765,1.765,0,0,0,.66,1.441A2.734,2.734,0,0,0,5.764-1.012Zm9.988-2.75a3.326,3.326,0,0,0-.022.44A2.547,2.547,0,0,0,16.258-1.6a1.853,1.853,0,0,0,1.474.605,4.36,4.36,0,0,0,.561-.033,3.205,3.205,0,0,1,.363-.033.4.4,0,0,1,.319.143.613.613,0,0,1,.121.407.5.5,0,0,1-.341.5,3.555,3.555,0,0,1-1.221.143,3.062,3.062,0,0,1-2.3-.869,3.336,3.336,0,0,1-.847-2.431,4.123,4.123,0,0,1,.022-.484l.462-5.94H13.244a.559.559,0,0,1-.4-.143.528.528,0,0,1-.154-.407.5.5,0,0,1,.154-.385.559.559,0,0,1,.4-.143h1.694l.22-2.75a.758.758,0,0,1,.231-.44.663.663,0,0,1,.473-.176.632.632,0,0,1,.484.187.592.592,0,0,1,.154.473l-.22,2.706h2.684a.559.559,0,0,1,.4.143.5.5,0,0,1,.154.385.528.528,0,0,1-.154.407.59.59,0,0,1-.418.143H16.214ZM21.45.11a.68.68,0,0,1-.484-.165.574.574,0,0,1-.132-.517l.77-9.7a.593.593,0,0,1,.231-.462.811.811,0,0,1,.495-.154.676.676,0,0,1,.462.154.528.528,0,0,1,.154.462l-.77,9.7a.766.766,0,0,1-.242.517A.731.731,0,0,1,21.45.11Zm1.166-13.486a.99.99,0,0,1-.715-.264.9.9,0,0,1-.275-.682.931.931,0,0,1,.275-.7.99.99,0,0,1,.715-.264.99.99,0,0,1,.715.264.931.931,0,0,1,.275.7.9.9,0,0,1-.275.682A.99.99,0,0,1,22.616-13.376ZM30.184.154a4.891,4.891,0,0,1-2.519-.638,4.235,4.235,0,0,1-1.672-1.8,5.976,5.976,0,0,1-.583-2.706,7.309,7.309,0,0,1,.627-3.124A4.815,4.815,0,0,1,27.819-10.2a4.821,4.821,0,0,1,2.651-.737,4.935,4.935,0,0,1,2.541.638,4.235,4.235,0,0,1,1.672,1.8,6.028,6.028,0,0,1,.583,2.728,7.254,7.254,0,0,1-.627,3.1A4.815,4.815,0,0,1,32.857-.583,4.861,4.861,0,0,1,30.184.154Zm.066-1.188a3.148,3.148,0,0,0,2.662-1.287A5.712,5.712,0,0,0,33.88-5.83a4.277,4.277,0,0,0-.9-2.9A3.152,3.152,0,0,0,30.47-9.768a3.17,3.17,0,0,0-2.684,1.287,5.793,5.793,0,0,0-.968,3.553,4.252,4.252,0,0,0,.88,2.893A3.217,3.217,0,0,0,30.25-1.034Zm13.134-9.9a3.8,3.8,0,0,1,2.728.9,3.54,3.54,0,0,1,.946,2.684,5.865,5.865,0,0,1-.022.594L46.574-.572a.676.676,0,0,1-.231.517.775.775,0,0,1-.495.165.648.648,0,0,1-.462-.165.622.622,0,0,1-.154-.517l.462-6.094a4.376,4.376,0,0,0,.022-.506,2.265,2.265,0,0,0-2.552-2.574,3.516,3.516,0,0,0-2.585.946A3.979,3.979,0,0,0,39.49-6.182l-.44,5.61a.766.766,0,0,1-.242.517.731.731,0,0,1-.484.165.68.68,0,0,1-.484-.165.574.574,0,0,1-.132-.517l.77-9.7a.593.593,0,0,1,.231-.462.811.811,0,0,1,.495-.154.635.635,0,0,1,.451.154.545.545,0,0,1,.143.462l-.11,1.342a3.881,3.881,0,0,1,1.507-1.474A4.456,4.456,0,0,1,43.384-10.934Z" transform="translate(180 283)" fill="#fff"/>
    <path id="Path_14518" data-name="Path 14518" d="M15.642-1.936a1.81,1.81,0,0,1,.11.55,1.333,1.333,0,0,1-.517,1.067A1.792,1.792,0,0,1,14.058.11a1.412,1.412,0,0,1-.792-.231,1.386,1.386,0,0,1-.528-.715l-.924-2.6H4.576l-1.32,2.6a1.7,1.7,0,0,1-.627.693A1.576,1.576,0,0,1,1.8.088a1.647,1.647,0,0,1-1.089-.4A1.261,1.261,0,0,1,.242-1.32a1.672,1.672,0,0,1,.22-.77L7.194-14.564a2.016,2.016,0,0,1,.792-.814,2.157,2.157,0,0,1,1.078-.286,2.039,2.039,0,0,1,1.056.286,1.552,1.552,0,0,1,.682.814Zm-4.73-4.092L8.844-11.836,5.9-6.028Zm14.85-9.482a5.542,5.542,0,0,1,3.828,1.221,4.22,4.22,0,0,1,1.364,3.311,4.9,4.9,0,0,1-1.463,3.817A6.015,6.015,0,0,1,25.3-5.83H21.538l-.33,4.268A1.831,1.831,0,0,1,20.647-.33,1.811,1.811,0,0,1,19.36.132,1.584,1.584,0,0,1,18.139-.33a1.567,1.567,0,0,1-.363-1.254l.968-12.32a1.756,1.756,0,0,1,.517-1.188,1.726,1.726,0,0,1,1.221-.418Zm-.77,7.084q2.75,0,2.75-2.354a2,2,0,0,0-.594-1.595,2.728,2.728,0,0,0-1.826-.517H22.088l-.352,4.466ZM40.458-15.51a5.542,5.542,0,0,1,3.828,1.221,4.22,4.22,0,0,1,1.364,3.311,4.9,4.9,0,0,1-1.463,3.817A6.015,6.015,0,0,1,40-5.83H36.234L35.9-1.562A1.831,1.831,0,0,1,35.343-.33a1.811,1.811,0,0,1-1.287.462A1.584,1.584,0,0,1,32.835-.33a1.567,1.567,0,0,1-.363-1.254L33.44-13.9a1.756,1.756,0,0,1,.517-1.188,1.726,1.726,0,0,1,1.221-.418Zm-.77,7.084q2.75,0,2.75-2.354a2,2,0,0,0-.594-1.595,2.728,2.728,0,0,0-1.826-.517H36.784l-.352,4.466Z" transform="translate(229 283)" fill="#fff"/>
  </g>
</svg>
