<svg xmlns="http://www.w3.org/2000/svg" xmlns:xlink="http://www.w3.org/1999/xlink" width="230" height="24" viewBox="0 0 230 24">
  <defs>
    <clipPath id="clip-path">
      <rect id="Rectangle_2154" data-name="Rectangle 2154" width="230" height="24" fill="#fff"/>
    </clipPath>
  </defs>
  <g id="logo" transform="translate(0 0)">
    <g id="Group_1757" data-name="Group 1757" transform="translate(0 0)" clip-path="url(#clip-path)">
      <path id="Path_1" data-name="Path 1" d="M13.661,6.263a6.774,6.774,0,0,1,5.257,2.524l5.056-4.36a11.588,11.588,0,0,0-4.538-3.3A16,16,0,0,0,13.259,0,14.869,14.869,0,0,0,6.395,1.541a11.463,11.463,0,0,0-4.7,4.345A12.17,12.17,0,0,0,0,12.3a12.1,12.1,0,0,0,1.574,6.312,10.384,10.384,0,0,0,4.269,4.016A13.011,13.011,0,0,0,11.852,24a9.58,9.58,0,0,0,6.3-1.935v1.41H23.3v-12.1H16.44v5.508a6.019,6.019,0,0,1-3.482.984,4.833,4.833,0,0,1-3.6-1.41,5.793,5.793,0,0,1-1.389-4.23A6.056,6.056,0,0,1,9.492,7.836a5.534,5.534,0,0,1,4.168-1.573" transform="translate(0 0)" fill="#fff"/>
      <path id="Path_2" data-name="Path 2" d="M52.8,13.636a7.993,7.993,0,0,0,1.138-4.3,8.11,8.11,0,0,0-1.306-4.59,8.306,8.306,0,0,0-3.717-3.017A14.106,14.106,0,0,0,43.259.685H31.976V23.636h7.9v-5.77H42.02L46,23.636h8.437L49.52,16.554A7.983,7.983,0,0,0,52.8,13.636m-7.634-2.312a3.565,3.565,0,0,1-2.411.7H39.877V6.652h2.879a3.565,3.565,0,0,1,2.411.705,2.5,2.5,0,0,1,.8,1.983,2.5,2.5,0,0,1-.8,1.984" transform="translate(-6.964 -0.16)" fill="#fff"/>
      <path id="Path_3" data-name="Path 3" d="M80.547,1.541a15.758,15.758,0,0,0-13.593,0A11.742,11.742,0,0,0,62.233,5.82,11.439,11.439,0,0,0,60.525,12a11.436,11.436,0,0,0,1.708,6.18,11.731,11.731,0,0,0,4.721,4.279,15.758,15.758,0,0,0,13.593,0,11.721,11.721,0,0,0,4.721-4.279A11.436,11.436,0,0,0,86.976,12,11.439,11.439,0,0,0,85.269,5.82a11.732,11.732,0,0,0-4.721-4.279M78.3,15.033a5.153,5.153,0,0,1-9.107,0,6.26,6.26,0,0,1-.7-3.032,6.258,6.258,0,0,1,.7-3.032,5.152,5.152,0,0,1,9.107,0,6.249,6.249,0,0,1,.7,3.032,6.251,6.251,0,0,1-.7,3.032" transform="translate(-13.181 0)" fill="#fff"/>
      <path id="Path_4" data-name="Path 4" d="M110.558,13.472a4.763,4.763,0,0,1-1.021,3.3,3.342,3.342,0,0,1-2.595,1.131,3.163,3.163,0,0,1-2.512-1.033,4.645,4.645,0,0,1-.9-3.131V2.859a2.2,2.2,0,0,0-2.22-2.174H95.625V13.964q0,4.886,2.276,7.541a7.968,7.968,0,0,0,6.4,2.656,7.86,7.86,0,0,0,6.5-2.983v2.46h7.667V.685h-7.9Z" transform="translate(-20.825 -0.16)" fill="#fff"/>
      <path id="Path_5" data-name="Path 5" d="M144.5,1.734A14.106,14.106,0,0,0,138.84.685H127.557V23.636h7.9V18h3.382a14.08,14.08,0,0,0,5.658-1.049,8.3,8.3,0,0,0,3.717-3.016,8.111,8.111,0,0,0,1.306-4.59,8.11,8.11,0,0,0-1.306-4.59A8.306,8.306,0,0,0,144.5,1.734m-3.75,9.591a3.564,3.564,0,0,1-2.41.7h-2.88V6.652h2.88a3.564,3.564,0,0,1,2.41.705,2.5,2.5,0,0,1,.8,1.983,2.5,2.5,0,0,1-.8,1.984" transform="translate(-27.78 -0.16)" fill="#fff"/>
      <path id="Path_6" data-name="Path 6" d="M186.168,6.521h3.516V17.657l-13.862-.021V.685h-7.9V23.636H201.1V17.8h-3.516V6.521H201.1V.685H186.168Z" transform="translate(-36.57 -0.16)" fill="#fff"/>
      <path id="Path_7" data-name="Path 7" d="M226.366,0A7.93,7.93,0,0,0,219.8,2.984V.525h-7.667V23.475h7.9V10.689a4.751,4.751,0,0,1,1.022-3.312,3.441,3.441,0,0,1,2.661-1.114A3.257,3.257,0,0,1,226.283,7.3a4.593,4.593,0,0,1,.92,3.131V21.478a2.018,2.018,0,0,0,2.04,2h5.862V10.2q0-4.885-2.293-7.542A8.061,8.061,0,0,0,226.366,0" transform="translate(-46.2 0)" fill="#fff"/>
      <path id="Path_8" data-name="Path 8" d="M268.056.685h-8.6l-7.7,8.328V.685h-7.767V23.636h7.767V17.964l1.775-1.934,5.859,7.606h9.142l-9.844-12.852Z" transform="translate(-53.135 -0.16)" fill="#fff"/>
      <path id="Path_9" data-name="Path 9" d="M290.55.6h-1.643l-1.879,3.092L285.1.6h-6.991V2.118h1.736V6.4h2V2.118h1.617V6.4h1.819V3.85l1.287,2.031h.88l1.287-2.122.017,2.644h1.819Z" transform="translate(-60.567 -0.14)" fill="#fff"/>
    </g>
  </g>
</svg>
