<svg id="icon-help" xmlns="http://www.w3.org/2000/svg" width="20" height="20" viewBox="0 0 20 20">
  <rect id="Rectangle_4894" data-name="Rectangle 4894" width="20" height="20" fill="none"/>
  <g id="Group_5343" data-name="Group 5343">
    <g id="Group_2492" data-name="Group 2492">
      <g id="Group_2491" data-name="Group 2491">
        <path id="Path_274" data-name="Path 274" d="M17.071,2.929A10,10,0,0,0,2.929,17.071,10,10,0,0,0,17.071,2.929ZM10,18.437A8.437,8.437,0,1,1,18.438,10,8.447,8.447,0,0,1,10,18.437Z" transform="translate(0)" fill="#0098ff"/>
      </g>
    </g>
    <path id="Path_12525" data-name="Path 12525" d="M2.845-8.722a4.206,4.206,0,0,1,.247-1.589,4.165,4.165,0,0,1,.977-1.3,7.458,7.458,0,0,0,.925-1.008,1.763,1.763,0,0,0,.3-.987,1.508,1.508,0,0,0-.348-1.073,1.337,1.337,0,0,0-1.022-.37,1.471,1.471,0,0,0-1.037.362,1.268,1.268,0,0,0-.393.981H.674a2.681,2.681,0,0,1,.9-2.1,3.449,3.449,0,0,1,2.347-.772,3.366,3.366,0,0,1,2.347.764,2.738,2.738,0,0,1,.842,2.136A3.5,3.5,0,0,1,5.975-11.27l-.921.907a2.47,2.47,0,0,0-.509,1.641ZM2.718-6.4a.954.954,0,0,1,.277-.712,1.022,1.022,0,0,1,.749-.272A1.016,1.016,0,0,1,4.5-7.1a.96.96,0,0,1,.277.7.943.943,0,0,1-.27.686,1.019,1.019,0,0,1-.764.276,1.006,1.006,0,0,1-.76-.276A.95.95,0,0,1,2.718-6.4Z" transform="translate(5.775 20.859)" fill="#0098ff"/>
  </g>
</svg>
