<svg xmlns="http://www.w3.org/2000/svg" xmlns:xlink="http://www.w3.org/1999/xlink" width="360" height="362.059" viewBox="0 0 360 362.059">
  <defs>
    <linearGradient id="linear-gradient" x1="0.5" x2="0.5" y2="1" gradientUnits="objectBoundingBox">
      <stop offset="0" stop-color="#09f"/>
      <stop offset="0.469" stop-color="#00dcff"/>
      <stop offset="1" stop-color="#00dcff" stop-opacity="0"/>
    </linearGradient>
    <linearGradient id="linear-gradient-2" y1="0.5" x2="1" y2="0.5" gradientUnits="objectBoundingBox">
      <stop offset="0" stop-color="#0fa"/>
      <stop offset="1" stop-color="#09f"/>
    </linearGradient>
  </defs>
  <g id="launch-bg-down" transform="translate(380.005 -5839.694)">
    <path id="Path_14350" data-name="Path 14350" d="M56.18,6396.813H-185.477v-176.9a63.268,63.268,0,0,1,63.269-63.269H56.18Z" transform="translate(-76.185 -195.131)" fill="url(#linear-gradient)"/>
    <path id="Rectangle_4630" data-name="Rectangle 4630" d="M39,0h80.337a0,0,0,0,1,0,0V121.823a0,0,0,0,1,0,0H0a0,0,0,0,1,0,0V39A39,39,0,0,1,39,0Z" transform="translate(-139.839 5839.694)" fill="#0fa"/>
    <path id="Path_14351" data-name="Path 14351" d="M133.468,6452.527a60.166,60.166,0,0,1-120.331,0Z" transform="translate(-153.971 -311.011)" fill="#639"/>
    <path id="Path_14352" data-name="Path 14352" d="M133.468,6353.628a60.166,60.166,0,0,1-120.331,0Z" transform="translate(-153.971 -272.277)" fill="#fff"/>
    <path id="Path_14354" data-name="Path 14354" d="M14.772,6156.648H74.44a59.668,59.668,0,0,1,59.668,59.668h0a59.668,59.668,0,0,1-59.668,59.669h0a59.668,59.668,0,0,1-59.668-59.669Z" transform="translate(-154.611 -195.131)" fill="url(#linear-gradient-2)"/>
    <path id="Path_14355" data-name="Path 14355" d="M-90.59,6253.912a34.119,34.119,0,0,1-34.118,34.119,34.119,34.119,0,0,1-34.118-34.119H-185.2a60.486,60.486,0,0,0,60.487,60.486h0a60.486,60.486,0,0,0,60.487-60.486H-90.59Z" transform="translate(-76.296 -233.223)" fill="#639"/>
    <rect id="Rectangle_4631" data-name="Rectangle 4631" width="120.33" height="120.331" transform="translate(-261.661 6081.351)" fill="#00dcff"/>
    <circle id="Ellipse_2729" data-name="Ellipse 2729" cx="37.293" cy="37.293" r="37.293" transform="translate(-238.292 6104.225)" fill="#09f"/>
    <g id="Group_5144" data-name="Group 5144" transform="translate(-109.364 5871.021)">
      <path id="Path_14356" data-name="Path 14356" d="M151.434,6050.16v-1.614h1.614a.927.927,0,1,0,0-1.853h-1.614v-1.614a.926.926,0,1,0-1.852,0v1.614h-1.614a.927.927,0,0,0,0,1.853h1.614v1.614a.926.926,0,0,0,1.852,0Z" transform="translate(-97.05 -6022.093)" fill="#639"/>
      <path id="Path_14357" data-name="Path 14357" d="M151.434,6031.853v-1.614h1.614a.927.927,0,1,0,0-1.853h-1.614v-1.613a.926.926,0,1,0-1.852,0v1.613h-1.614a.927.927,0,0,0,0,1.853h1.614v1.614a.926.926,0,1,0,1.852,0Z" transform="translate(-97.05 -6014.923)" fill="#639"/>
      <path id="Path_14358" data-name="Path 14358" d="M151.439,6013.526v-1.514h1.613a.87.87,0,1,0,0-1.737h-1.613v-1.514a.927.927,0,0,0-1.851,0v1.514h-1.613a.87.87,0,1,0,0,1.737h1.613v1.514a.927.927,0,0,0,1.851,0Z" transform="translate(-97.053 -6007.893)" fill="#639"/>
      <path id="Path_14359" data-name="Path 14359" d="M134.955,6050.16v-1.614h1.614a.927.927,0,0,0,0-1.853h-1.614v-1.614a.927.927,0,0,0-1.853,0v1.614h-1.614a.927.927,0,0,0,0,1.853H133.1v1.614a.927.927,0,0,0,1.853,0Z" transform="translate(-90.596 -6022.093)" fill="#639"/>
      <path id="Path_14360" data-name="Path 14360" d="M134.955,6031.853v-1.614h1.614a.927.927,0,0,0,0-1.853h-1.614v-1.613a.927.927,0,0,0-1.853,0v1.613h-1.614a.927.927,0,0,0,0,1.853H133.1v1.614a.927.927,0,1,0,1.853,0Z" transform="translate(-90.596 -6014.923)" fill="#639"/>
      <path id="Path_14361" data-name="Path 14361" d="M134.959,6013.526v-1.514h1.613a.87.87,0,1,0,0-1.737h-1.613v-1.514a.927.927,0,0,0-1.851,0v1.514H131.5a.87.87,0,1,0,0,1.737h1.613v1.514a.927.927,0,0,0,1.851,0Z" transform="translate(-90.599 -6007.893)" fill="#639"/>
      <path id="Path_14362" data-name="Path 14362" d="M118.475,6050.16v-1.614h1.614a.927.927,0,0,0,0-1.853h-1.614v-1.614a.926.926,0,1,0-1.852,0v1.614h-1.614a.927.927,0,1,0,0,1.853h1.614v1.614a.926.926,0,0,0,1.852,0Z" transform="translate(-84.142 -6022.093)" fill="#639"/>
      <path id="Path_14363" data-name="Path 14363" d="M118.475,6031.853v-1.614h1.614a.927.927,0,0,0,0-1.853h-1.614v-1.613a.926.926,0,1,0-1.852,0v1.613h-1.614a.927.927,0,1,0,0,1.853h1.614v1.614a.926.926,0,1,0,1.852,0Z" transform="translate(-84.142 -6014.923)" fill="#639"/>
      <path id="Path_14364" data-name="Path 14364" d="M118.48,6013.526v-1.514h1.613a.87.87,0,1,0,0-1.737H118.48v-1.514a.927.927,0,0,0-1.851,0v1.514h-1.613a.87.87,0,1,0,0,1.737h1.613v1.514a.927.927,0,0,0,1.851,0Z" transform="translate(-84.145 -6007.893)" fill="#639"/>
      <path id="Path_14365" data-name="Path 14365" d="M149.582,6099.59v1.613h-1.614a.926.926,0,0,0,0,1.853h1.614v1.614a.926.926,0,0,0,1.852,0v-1.614h1.614a.926.926,0,1,0,0-1.853h-1.614v-1.613a.926.926,0,1,0-1.852,0Z" transform="translate(-97.05 -6043.442)" fill="#639"/>
      <path id="Path_14366" data-name="Path 14366" d="M151.434,6086.363v-1.614h1.614a.927.927,0,1,0,0-1.853h-1.614v-1.613a.926.926,0,0,0-1.852,0v1.613h-1.614a.927.927,0,0,0,0,1.853h1.614v1.614a.926.926,0,0,0,1.852,0Z" transform="translate(-97.05 -6036.273)" fill="#639"/>
      <path id="Path_14367" data-name="Path 14367" d="M151.439,6068.036v-1.513h1.613a.871.871,0,1,0,0-1.738h-1.613v-1.513a.927.927,0,0,0-1.851,0v1.513h-1.613a.871.871,0,1,0,0,1.738h1.613v1.513a.927.927,0,0,0,1.851,0Z" transform="translate(-97.053 -6029.241)" fill="#639"/>
      <path id="Path_14368" data-name="Path 14368" d="M134.955,6104.67v-1.614h1.614a.926.926,0,0,0,0-1.853h-1.614v-1.613a.927.927,0,1,0-1.853,0v1.613h-1.614a.926.926,0,0,0,0,1.853H133.1v1.614a.927.927,0,0,0,1.853,0Z" transform="translate(-90.596 -6043.442)" fill="#639"/>
      <path id="Path_14369" data-name="Path 14369" d="M134.955,6086.363v-1.614h1.614a.927.927,0,0,0,0-1.853h-1.614v-1.613a.927.927,0,0,0-1.853,0v1.613h-1.614a.927.927,0,0,0,0,1.853H133.1v1.614a.927.927,0,0,0,1.853,0Z" transform="translate(-90.596 -6036.273)" fill="#639"/>
      <path id="Path_14370" data-name="Path 14370" d="M134.959,6068.036v-1.513h1.613a.871.871,0,1,0,0-1.738h-1.613v-1.513a.927.927,0,0,0-1.851,0v1.513H131.5a.871.871,0,1,0,0,1.738h1.613v1.513a.927.927,0,0,0,1.851,0Z" transform="translate(-90.599 -6029.241)" fill="#639"/>
      <path id="Path_14371" data-name="Path 14371" d="M118.475,6104.67v-1.614h1.614a.926.926,0,0,0,0-1.853h-1.614v-1.613a.926.926,0,1,0-1.852,0v1.613h-1.614a.926.926,0,1,0,0,1.853h1.614v1.614a.926.926,0,0,0,1.852,0Z" transform="translate(-84.142 -6043.442)" fill="#639"/>
      <path id="Path_14372" data-name="Path 14372" d="M118.475,6086.363v-1.614h1.614a.927.927,0,0,0,0-1.853h-1.614v-1.613a.926.926,0,0,0-1.852,0v1.613h-1.614a.927.927,0,1,0,0,1.853h1.614v1.614a.926.926,0,0,0,1.852,0Z" transform="translate(-84.142 -6036.273)" fill="#639"/>
      <path id="Path_14373" data-name="Path 14373" d="M118.48,6068.036v-1.513h1.613a.871.871,0,1,0,0-1.738H118.48v-1.513a.927.927,0,0,0-1.851,0v1.513h-1.613a.871.871,0,1,0,0,1.738h1.613v1.513a.927.927,0,0,0,1.851,0Z" transform="translate(-84.145 -6029.241)" fill="#639"/>
      <path id="Path_14374" data-name="Path 14374" d="M102.219,6050.16v-1.614h1.614a.927.927,0,1,0,0-1.853h-1.614v-1.614a.926.926,0,1,0-1.852,0v1.614H98.753a.927.927,0,0,0,0,1.853h1.614v1.614a.926.926,0,0,0,1.852,0Z" transform="translate(-77.776 -6022.093)" fill="#639"/>
      <path id="Path_14375" data-name="Path 14375" d="M102.219,6031.853v-1.614h1.614a.927.927,0,1,0,0-1.853h-1.614v-1.613a.926.926,0,1,0-1.852,0v1.613H98.753a.927.927,0,0,0,0,1.853h1.614v1.614a.926.926,0,1,0,1.852,0Z" transform="translate(-77.776 -6014.923)" fill="#639"/>
      <path id="Path_14376" data-name="Path 14376" d="M102.224,6013.526v-1.514h1.613a.87.87,0,1,0,0-1.737h-1.613v-1.514a.927.927,0,0,0-1.851,0v1.514H98.76a.87.87,0,1,0,0,1.737h1.613v1.514a.927.927,0,0,0,1.851,0Z" transform="translate(-77.779 -6007.893)" fill="#639"/>
      <path id="Path_14377" data-name="Path 14377" d="M85.74,6050.16v-1.614h1.614a.927.927,0,0,0,0-1.853H85.74v-1.614a.927.927,0,0,0-1.853,0v1.614H82.273a.927.927,0,0,0,0,1.853h1.614v1.614a.927.927,0,0,0,1.853,0Z" transform="translate(-71.321 -6022.093)" fill="#639"/>
      <path id="Path_14378" data-name="Path 14378" d="M85.74,6031.853v-1.614h1.614a.927.927,0,0,0,0-1.853H85.74v-1.613a.927.927,0,0,0-1.853,0v1.613H82.273a.927.927,0,0,0,0,1.853h1.614v1.614a.927.927,0,1,0,1.853,0Z" transform="translate(-71.321 -6014.923)" fill="#639"/>
      <path id="Path_14379" data-name="Path 14379" d="M85.744,6013.526v-1.514h1.613a.87.87,0,1,0,0-1.737H85.744v-1.514a.927.927,0,0,0-1.851,0v1.514H82.28a.87.87,0,1,0,0,1.737h1.613v1.514a.927.927,0,0,0,1.851,0Z" transform="translate(-71.324 -6007.893)" fill="#639"/>
      <path id="Path_14380" data-name="Path 14380" d="M69.26,6050.16v-1.614h1.614a.927.927,0,0,0,0-1.853H69.26v-1.614a.926.926,0,1,0-1.852,0v1.614H65.794a.927.927,0,1,0,0,1.853h1.614v1.614a.926.926,0,0,0,1.852,0Z" transform="translate(-64.867 -6022.093)" fill="#639"/>
      <path id="Path_14381" data-name="Path 14381" d="M69.26,6031.853v-1.614h1.614a.927.927,0,0,0,0-1.853H69.26v-1.613a.926.926,0,1,0-1.852,0v1.613H65.794a.927.927,0,1,0,0,1.853h1.614v1.614a.926.926,0,1,0,1.852,0Z" transform="translate(-64.867 -6014.923)" fill="#639"/>
      <path id="Path_14382" data-name="Path 14382" d="M69.265,6013.526v-1.514h1.613a.87.87,0,1,0,0-1.737H69.265v-1.514a.927.927,0,0,0-1.851,0v1.514H65.8a.87.87,0,1,0,0,1.737h1.613v1.514a.927.927,0,0,0,1.851,0Z" transform="translate(-64.87 -6007.893)" fill="#639"/>
      <path id="Path_14383" data-name="Path 14383" d="M102.219,6104.67v-1.614h1.614a.926.926,0,1,0,0-1.853h-1.614v-1.613a.926.926,0,1,0-1.852,0v1.613H98.753a.926.926,0,0,0,0,1.853h1.614v1.614a.926.926,0,0,0,1.852,0Z" transform="translate(-77.776 -6043.442)" fill="#639"/>
      <path id="Path_14384" data-name="Path 14384" d="M102.219,6086.363v-1.614h1.614a.927.927,0,1,0,0-1.853h-1.614v-1.613a.926.926,0,0,0-1.852,0v1.613H98.753a.927.927,0,0,0,0,1.853h1.614v1.614a.926.926,0,0,0,1.852,0Z" transform="translate(-77.776 -6036.273)" fill="#639"/>
      <path id="Path_14385" data-name="Path 14385" d="M102.224,6068.036v-1.513h1.613a.871.871,0,1,0,0-1.738h-1.613v-1.513a.927.927,0,0,0-1.851,0v1.513H98.76a.871.871,0,1,0,0,1.738h1.613v1.513a.927.927,0,0,0,1.851,0Z" transform="translate(-77.779 -6029.241)" fill="#639"/>
      <path id="Path_14386" data-name="Path 14386" d="M85.74,6104.67v-1.614h1.614a.926.926,0,0,0,0-1.853H85.74v-1.613a.927.927,0,1,0-1.853,0v1.613H82.273a.926.926,0,0,0,0,1.853h1.614v1.614a.927.927,0,0,0,1.853,0Z" transform="translate(-71.321 -6043.442)" fill="#639"/>
      <path id="Path_14387" data-name="Path 14387" d="M85.74,6086.363v-1.614h1.614a.927.927,0,0,0,0-1.853H85.74v-1.613a.927.927,0,0,0-1.853,0v1.613H82.273a.927.927,0,0,0,0,1.853h1.614v1.614a.927.927,0,0,0,1.853,0Z" transform="translate(-71.321 -6036.273)" fill="#639"/>
      <path id="Path_14388" data-name="Path 14388" d="M85.744,6068.036v-1.513h1.613a.871.871,0,1,0,0-1.738H85.744v-1.513a.927.927,0,0,0-1.851,0v1.513H82.28a.871.871,0,1,0,0,1.738h1.613v1.513a.927.927,0,0,0,1.851,0Z" transform="translate(-71.324 -6029.241)" fill="#639"/>
      <path id="Path_14389" data-name="Path 14389" d="M69.26,6104.67v-1.614h1.614a.926.926,0,0,0,0-1.853H69.26v-1.613a.926.926,0,1,0-1.852,0v1.613H65.794a.926.926,0,1,0,0,1.853h1.614v1.614a.926.926,0,0,0,1.852,0Z" transform="translate(-64.867 -6043.442)" fill="#639"/>
      <path id="Path_14390" data-name="Path 14390" d="M69.26,6086.363v-1.614h1.614a.927.927,0,0,0,0-1.853H69.26v-1.613a.926.926,0,0,0-1.852,0v1.613H65.794a.927.927,0,1,0,0,1.853h1.614v1.614a.926.926,0,0,0,1.852,0Z" transform="translate(-64.867 -6036.273)" fill="#639"/>
      <path id="Path_14391" data-name="Path 14391" d="M69.265,6068.036v-1.513h1.613a.871.871,0,1,0,0-1.738H69.265v-1.513a.927.927,0,0,0-1.851,0v1.513H65.8a.871.871,0,1,0,0,1.738h1.613v1.513a.927.927,0,0,0,1.851,0Z" transform="translate(-64.87 -6029.241)" fill="#639"/>
    </g>
    <path id="Path_14353" data-name="Path 14353" d="M-380.005,6474.029v-120.4h118.411v6.468a113.933,113.933,0,0,1-113.933,113.934Z" transform="translate(0 -272.277)" fill="#0fa"/>
  </g>
</svg>
