<svg xmlns="http://www.w3.org/2000/svg" width="113.796" height="115.296" viewBox="0 0 113.796 115.296">
  <g id="launch-bg-up" transform="translate(375.456 -5520.905)">
    <g id="Group_5145" data-name="Group 5145" transform="translate(-375.456 5520.905)">
      <path id="Path_14392" data-name="Path 14392" d="M9.121,5834.138a2.233,2.233,0,1,0-2.233,2.233A2.233,2.233,0,0,0,9.121,5834.138Z" transform="translate(104.675 -5790.536)" fill="#00dcff"/>
      <path id="Path_14393" data-name="Path 14393" d="M-8.815,5834.138a2.233,2.233,0,0,0-2.233-2.233,2.234,2.234,0,0,0-2.233,2.233,2.234,2.234,0,0,0,2.233,2.233A2.233,2.233,0,0,0-8.815,5834.138Z" transform="translate(111.7 -5790.536)" fill="#00dcff"/>
      <path id="Path_14394" data-name="Path 14394" d="M-26.751,5834.138a2.234,2.234,0,0,0-2.233-2.233,2.234,2.234,0,0,0-2.233,2.233,2.234,2.234,0,0,0,2.233,2.233A2.234,2.234,0,0,0-26.751,5834.138Z" transform="translate(118.724 -5790.536)" fill="#00dcff"/>
      <path id="Path_14395" data-name="Path 14395" d="M-44.688,5834.138a2.233,2.233,0,0,0-2.233-2.233,2.233,2.233,0,0,0-2.233,2.233,2.233,2.233,0,0,0,2.233,2.233A2.233,2.233,0,0,0-44.688,5834.138Z" transform="translate(125.749 -5790.536)" fill="#00dcff"/>
      <path id="Path_14396" data-name="Path 14396" d="M-62.624,5834.138a2.234,2.234,0,0,0-2.233-2.233,2.233,2.233,0,0,0-2.233,2.233,2.233,2.233,0,0,0,2.233,2.233A2.234,2.234,0,0,0-62.624,5834.138Z" transform="translate(132.773 -5790.536)" fill="#00dcff"/>
      <path id="Path_14397" data-name="Path 14397" d="M-80.56,5834.138a2.234,2.234,0,0,0-2.233-2.233,2.234,2.234,0,0,0-2.233,2.233,2.234,2.234,0,0,0,2.233,2.233A2.234,2.234,0,0,0-80.56,5834.138Z" transform="translate(139.798 -5790.536)" fill="#00dcff"/>
      <path id="Path_14398" data-name="Path 14398" d="M-98.5,5834.138a2.233,2.233,0,0,0-2.233-2.233,2.233,2.233,0,0,0-2.233,2.233,2.233,2.233,0,0,0,2.233,2.233A2.233,2.233,0,0,0-98.5,5834.138Z" transform="translate(146.823 -5790.536)" fill="#00dcff"/>
      <path id="Path_14399" data-name="Path 14399" d="M-116.433,5834.138a2.233,2.233,0,0,0-2.233-2.233,2.233,2.233,0,0,0-2.233,2.233,2.233,2.233,0,0,0,2.233,2.233A2.233,2.233,0,0,0-116.433,5834.138Z" transform="translate(153.847 -5790.536)" fill="#00dcff"/>
      <path id="Path_14400" data-name="Path 14400" d="M-134.369,5834.138a2.234,2.234,0,0,0-2.233-2.233,2.234,2.234,0,0,0-2.233,2.233,2.234,2.234,0,0,0,2.233,2.233A2.234,2.234,0,0,0-134.369,5834.138Z" transform="translate(160.872 -5790.536)" fill="#00dcff"/>
      <path id="Path_14401" data-name="Path 14401" d="M-152.306,5834.138a2.233,2.233,0,0,0-2.233-2.233,2.233,2.233,0,0,0-2.233,2.233,2.233,2.233,0,0,0,2.233,2.233A2.233,2.233,0,0,0-152.306,5834.138Z" transform="translate(167.896 -5790.536)" fill="#00dcff"/>
      <path id="Path_14402" data-name="Path 14402" d="M9.121,5856.974a2.233,2.233,0,1,0-2.233,2.233A2.233,2.233,0,0,0,9.121,5856.974Z" transform="translate(104.675 -5799.479)" fill="#00dcff"/>
      <path id="Path_14403" data-name="Path 14403" d="M-8.815,5856.974a2.233,2.233,0,0,0-2.233-2.233,2.233,2.233,0,0,0-2.233,2.233,2.233,2.233,0,0,0,2.233,2.233A2.232,2.232,0,0,0-8.815,5856.974Z" transform="translate(111.7 -5799.479)" fill="#00dcff"/>
      <path id="Path_14404" data-name="Path 14404" d="M-26.751,5856.974a2.233,2.233,0,0,0-2.233-2.233,2.233,2.233,0,0,0-2.233,2.233,2.233,2.233,0,0,0,2.233,2.233A2.233,2.233,0,0,0-26.751,5856.974Z" transform="translate(118.724 -5799.479)" fill="#00dcff"/>
      <path id="Path_14405" data-name="Path 14405" d="M-44.688,5856.974a2.233,2.233,0,0,0-2.233-2.233,2.233,2.233,0,0,0-2.233,2.233,2.232,2.232,0,0,0,2.233,2.233A2.232,2.232,0,0,0-44.688,5856.974Z" transform="translate(125.749 -5799.479)" fill="#00dcff"/>
      <path id="Path_14406" data-name="Path 14406" d="M-62.624,5856.974a2.233,2.233,0,0,0-2.233-2.233,2.233,2.233,0,0,0-2.233,2.233,2.232,2.232,0,0,0,2.233,2.233A2.233,2.233,0,0,0-62.624,5856.974Z" transform="translate(132.773 -5799.479)" fill="#00dcff"/>
      <path id="Path_14407" data-name="Path 14407" d="M-80.56,5856.974a2.233,2.233,0,0,0-2.233-2.233,2.233,2.233,0,0,0-2.233,2.233,2.233,2.233,0,0,0,2.233,2.233A2.233,2.233,0,0,0-80.56,5856.974Z" transform="translate(139.798 -5799.479)" fill="#00dcff"/>
      <path id="Path_14408" data-name="Path 14408" d="M-98.5,5856.974a2.233,2.233,0,0,0-2.233-2.233,2.233,2.233,0,0,0-2.233,2.233,2.232,2.232,0,0,0,2.233,2.233A2.232,2.232,0,0,0-98.5,5856.974Z" transform="translate(146.823 -5799.479)" fill="#00dcff"/>
      <path id="Path_14409" data-name="Path 14409" d="M-116.433,5856.974a2.233,2.233,0,0,0-2.233-2.233,2.233,2.233,0,0,0-2.233,2.233,2.232,2.232,0,0,0,2.233,2.233A2.232,2.232,0,0,0-116.433,5856.974Z" transform="translate(153.847 -5799.479)" fill="#00dcff"/>
      <path id="Path_14410" data-name="Path 14410" d="M-134.369,5856.974a2.233,2.233,0,0,0-2.233-2.233,2.233,2.233,0,0,0-2.233,2.233,2.233,2.233,0,0,0,2.233,2.233A2.233,2.233,0,0,0-134.369,5856.974Z" transform="translate(160.872 -5799.479)" fill="#00dcff"/>
      <path id="Path_14411" data-name="Path 14411" d="M-152.306,5856.974a2.233,2.233,0,0,0-2.233-2.233,2.233,2.233,0,0,0-2.233,2.233,2.232,2.232,0,0,0,2.233,2.233A2.232,2.232,0,0,0-152.306,5856.974Z" transform="translate(167.896 -5799.479)" fill="#00dcff"/>
      <path id="Path_14412" data-name="Path 14412" d="M9.121,5879.809a2.233,2.233,0,1,0-2.233,2.233A2.233,2.233,0,0,0,9.121,5879.809Z" transform="translate(104.675 -5808.423)" fill="#00dcff"/>
      <path id="Path_14413" data-name="Path 14413" d="M-8.815,5879.809a2.233,2.233,0,0,0-2.233-2.233,2.233,2.233,0,0,0-2.233,2.233,2.234,2.234,0,0,0,2.233,2.233A2.233,2.233,0,0,0-8.815,5879.809Z" transform="translate(111.7 -5808.423)" fill="#00dcff"/>
      <path id="Path_14414" data-name="Path 14414" d="M-26.751,5879.809a2.233,2.233,0,0,0-2.233-2.233,2.233,2.233,0,0,0-2.233,2.233,2.234,2.234,0,0,0,2.233,2.233A2.234,2.234,0,0,0-26.751,5879.809Z" transform="translate(118.724 -5808.423)" fill="#00dcff"/>
      <path id="Path_14415" data-name="Path 14415" d="M-44.688,5879.809a2.233,2.233,0,0,0-2.233-2.233,2.233,2.233,0,0,0-2.233,2.233,2.233,2.233,0,0,0,2.233,2.233A2.233,2.233,0,0,0-44.688,5879.809Z" transform="translate(125.749 -5808.423)" fill="#00dcff"/>
      <path id="Path_14416" data-name="Path 14416" d="M-62.624,5879.809a2.233,2.233,0,0,0-2.233-2.233,2.233,2.233,0,0,0-2.233,2.233,2.233,2.233,0,0,0,2.233,2.233A2.234,2.234,0,0,0-62.624,5879.809Z" transform="translate(132.773 -5808.423)" fill="#00dcff"/>
      <path id="Path_14417" data-name="Path 14417" d="M-80.56,5879.809a2.233,2.233,0,0,0-2.233-2.233,2.233,2.233,0,0,0-2.233,2.233,2.234,2.234,0,0,0,2.233,2.233A2.234,2.234,0,0,0-80.56,5879.809Z" transform="translate(139.798 -5808.423)" fill="#00dcff"/>
      <path id="Path_14418" data-name="Path 14418" d="M-98.5,5879.809a2.233,2.233,0,0,0-2.233-2.233,2.233,2.233,0,0,0-2.233,2.233,2.233,2.233,0,0,0,2.233,2.233A2.233,2.233,0,0,0-98.5,5879.809Z" transform="translate(146.823 -5808.423)" fill="#00dcff"/>
      <path id="Path_14419" data-name="Path 14419" d="M-116.433,5879.809a2.233,2.233,0,0,0-2.233-2.233,2.233,2.233,0,0,0-2.233,2.233,2.233,2.233,0,0,0,2.233,2.233A2.233,2.233,0,0,0-116.433,5879.809Z" transform="translate(153.847 -5808.423)" fill="#00dcff"/>
      <path id="Path_14420" data-name="Path 14420" d="M-134.369,5879.809a2.233,2.233,0,0,0-2.233-2.233,2.233,2.233,0,0,0-2.233,2.233,2.234,2.234,0,0,0,2.233,2.233A2.234,2.234,0,0,0-134.369,5879.809Z" transform="translate(160.872 -5808.423)" fill="#00dcff"/>
      <path id="Path_14421" data-name="Path 14421" d="M-152.306,5879.809a2.233,2.233,0,0,0-2.233-2.233,2.233,2.233,0,0,0-2.233,2.233,2.233,2.233,0,0,0,2.233,2.233A2.233,2.233,0,0,0-152.306,5879.809Z" transform="translate(167.896 -5808.423)" fill="#00dcff"/>
      <path id="Path_14422" data-name="Path 14422" d="M9.121,5902.645a2.233,2.233,0,1,0-2.233,2.233A2.233,2.233,0,0,0,9.121,5902.645Z" transform="translate(104.675 -5817.366)" fill="#00dcff"/>
      <path id="Path_14423" data-name="Path 14423" d="M-8.815,5902.645a2.233,2.233,0,0,0-2.233-2.233,2.233,2.233,0,0,0-2.233,2.233,2.233,2.233,0,0,0,2.233,2.233A2.232,2.232,0,0,0-8.815,5902.645Z" transform="translate(111.7 -5817.366)" fill="#00dcff"/>
      <path id="Path_14424" data-name="Path 14424" d="M-26.751,5902.645a2.233,2.233,0,0,0-2.233-2.233,2.233,2.233,0,0,0-2.233,2.233,2.233,2.233,0,0,0,2.233,2.233A2.233,2.233,0,0,0-26.751,5902.645Z" transform="translate(118.724 -5817.366)" fill="#00dcff"/>
      <path id="Path_14425" data-name="Path 14425" d="M-44.688,5902.645a2.233,2.233,0,0,0-2.233-2.233,2.233,2.233,0,0,0-2.233,2.233,2.232,2.232,0,0,0,2.233,2.233A2.232,2.232,0,0,0-44.688,5902.645Z" transform="translate(125.749 -5817.366)" fill="#00dcff"/>
      <path id="Path_14426" data-name="Path 14426" d="M-62.624,5902.645a2.233,2.233,0,0,0-2.233-2.233,2.233,2.233,0,0,0-2.233,2.233,2.232,2.232,0,0,0,2.233,2.233A2.233,2.233,0,0,0-62.624,5902.645Z" transform="translate(132.773 -5817.366)" fill="#00dcff"/>
      <path id="Path_14427" data-name="Path 14427" d="M-80.56,5902.645a2.233,2.233,0,0,0-2.233-2.233,2.233,2.233,0,0,0-2.233,2.233,2.233,2.233,0,0,0,2.233,2.233A2.233,2.233,0,0,0-80.56,5902.645Z" transform="translate(139.798 -5817.366)" fill="#00dcff"/>
      <path id="Path_14428" data-name="Path 14428" d="M-98.5,5902.645a2.233,2.233,0,0,0-2.233-2.233,2.233,2.233,0,0,0-2.233,2.233,2.232,2.232,0,0,0,2.233,2.233A2.232,2.232,0,0,0-98.5,5902.645Z" transform="translate(146.823 -5817.366)" fill="#00dcff"/>
      <path id="Path_14429" data-name="Path 14429" d="M-116.433,5902.645a2.233,2.233,0,0,0-2.233-2.233,2.233,2.233,0,0,0-2.233,2.233,2.232,2.232,0,0,0,2.233,2.233A2.232,2.232,0,0,0-116.433,5902.645Z" transform="translate(153.847 -5817.366)" fill="#00dcff"/>
      <path id="Path_14430" data-name="Path 14430" d="M-134.369,5902.645a2.233,2.233,0,0,0-2.233-2.233,2.233,2.233,0,0,0-2.233,2.233,2.233,2.233,0,0,0,2.233,2.233A2.233,2.233,0,0,0-134.369,5902.645Z" transform="translate(160.872 -5817.366)" fill="#00dcff"/>
      <path id="Path_14431" data-name="Path 14431" d="M-152.306,5902.645a2.233,2.233,0,0,0-2.233-2.233,2.233,2.233,0,0,0-2.233,2.233,2.232,2.232,0,0,0,2.233,2.233A2.232,2.232,0,0,0-152.306,5902.645Z" transform="translate(167.896 -5817.366)" fill="#00dcff"/>
      <path id="Path_14432" data-name="Path 14432" d="M9.121,5925.481a2.233,2.233,0,1,0-2.233,2.232A2.233,2.233,0,0,0,9.121,5925.481Z" transform="translate(104.675 -5826.31)" fill="#00dcff"/>
      <path id="Path_14433" data-name="Path 14433" d="M-8.815,5925.481a2.233,2.233,0,0,0-2.233-2.234,2.233,2.233,0,0,0-2.233,2.234,2.233,2.233,0,0,0,2.233,2.232A2.233,2.233,0,0,0-8.815,5925.481Z" transform="translate(111.7 -5826.31)" fill="#00dcff"/>
      <path id="Path_14434" data-name="Path 14434" d="M-26.751,5925.481a2.233,2.233,0,0,0-2.233-2.234,2.233,2.233,0,0,0-2.233,2.234,2.233,2.233,0,0,0,2.233,2.232A2.233,2.233,0,0,0-26.751,5925.481Z" transform="translate(118.724 -5826.31)" fill="#00dcff"/>
      <path id="Path_14435" data-name="Path 14435" d="M-44.688,5925.481a2.233,2.233,0,0,0-2.233-2.234,2.233,2.233,0,0,0-2.233,2.234,2.233,2.233,0,0,0,2.233,2.232A2.233,2.233,0,0,0-44.688,5925.481Z" transform="translate(125.749 -5826.31)" fill="#00dcff"/>
      <path id="Path_14436" data-name="Path 14436" d="M-62.624,5925.481a2.233,2.233,0,0,0-2.233-2.234,2.233,2.233,0,0,0-2.233,2.234,2.233,2.233,0,0,0,2.233,2.232A2.233,2.233,0,0,0-62.624,5925.481Z" transform="translate(132.773 -5826.31)" fill="#00dcff"/>
      <path id="Path_14437" data-name="Path 14437" d="M-80.56,5925.481a2.233,2.233,0,0,0-2.233-2.234,2.233,2.233,0,0,0-2.233,2.234,2.233,2.233,0,0,0,2.233,2.232A2.233,2.233,0,0,0-80.56,5925.481Z" transform="translate(139.798 -5826.31)" fill="#00dcff"/>
      <path id="Path_14438" data-name="Path 14438" d="M-98.5,5925.481a2.233,2.233,0,0,0-2.233-2.234,2.233,2.233,0,0,0-2.233,2.234,2.233,2.233,0,0,0,2.233,2.232A2.233,2.233,0,0,0-98.5,5925.481Z" transform="translate(146.823 -5826.31)" fill="#00dcff"/>
      <path id="Path_14439" data-name="Path 14439" d="M-116.433,5925.481a2.233,2.233,0,0,0-2.233-2.234,2.233,2.233,0,0,0-2.233,2.234,2.233,2.233,0,0,0,2.233,2.232A2.233,2.233,0,0,0-116.433,5925.481Z" transform="translate(153.847 -5826.31)" fill="#00dcff"/>
      <path id="Path_14440" data-name="Path 14440" d="M-134.369,5925.481a2.233,2.233,0,0,0-2.233-2.234,2.233,2.233,0,0,0-2.233,2.234,2.233,2.233,0,0,0,2.233,2.232A2.233,2.233,0,0,0-134.369,5925.481Z" transform="translate(160.872 -5826.31)" fill="#00dcff"/>
      <path id="Path_14441" data-name="Path 14441" d="M-152.306,5925.481a2.233,2.233,0,0,0-2.233-2.234,2.233,2.233,0,0,0-2.233,2.234,2.233,2.233,0,0,0,2.233,2.232A2.233,2.233,0,0,0-152.306,5925.481Z" transform="translate(167.896 -5826.31)" fill="#00dcff"/>
      <path id="Path_14442" data-name="Path 14442" d="M4.655,5948.315a2.233,2.233,0,1,0,2.233-2.233A2.233,2.233,0,0,0,4.655,5948.315Z" transform="translate(104.675 -5835.252)" fill="#00dcff"/>
      <path id="Path_14443" data-name="Path 14443" d="M-8.815,5948.315a2.233,2.233,0,0,0-2.233-2.233,2.234,2.234,0,0,0-2.233,2.233,2.234,2.234,0,0,0,2.233,2.233A2.233,2.233,0,0,0-8.815,5948.315Z" transform="translate(111.7 -5835.252)" fill="#00dcff"/>
      <path id="Path_14444" data-name="Path 14444" d="M-26.751,5948.315a2.234,2.234,0,0,0-2.233-2.233,2.234,2.234,0,0,0-2.233,2.233,2.234,2.234,0,0,0,2.233,2.233A2.234,2.234,0,0,0-26.751,5948.315Z" transform="translate(118.724 -5835.252)" fill="#00dcff"/>
      <path id="Path_14445" data-name="Path 14445" d="M-44.688,5948.315a2.233,2.233,0,0,0-2.233-2.233,2.233,2.233,0,0,0-2.233,2.233,2.233,2.233,0,0,0,2.233,2.233A2.233,2.233,0,0,0-44.688,5948.315Z" transform="translate(125.749 -5835.252)" fill="#00dcff"/>
      <path id="Path_14446" data-name="Path 14446" d="M-62.624,5948.315a2.234,2.234,0,0,0-2.233-2.233,2.233,2.233,0,0,0-2.233,2.233,2.233,2.233,0,0,0,2.233,2.233A2.234,2.234,0,0,0-62.624,5948.315Z" transform="translate(132.773 -5835.252)" fill="#00dcff"/>
      <path id="Path_14447" data-name="Path 14447" d="M-80.56,5948.315a2.234,2.234,0,0,0-2.233-2.233,2.234,2.234,0,0,0-2.233,2.233,2.234,2.234,0,0,0,2.233,2.233A2.234,2.234,0,0,0-80.56,5948.315Z" transform="translate(139.798 -5835.252)" fill="#00dcff"/>
      <path id="Path_14448" data-name="Path 14448" d="M-98.5,5948.315a2.233,2.233,0,0,0-2.233-2.233,2.233,2.233,0,0,0-2.233,2.233,2.233,2.233,0,0,0,2.233,2.233A2.233,2.233,0,0,0-98.5,5948.315Z" transform="translate(146.823 -5835.252)" fill="#00dcff"/>
      <path id="Path_14449" data-name="Path 14449" d="M-116.433,5948.315a2.233,2.233,0,0,0-2.233-2.233,2.233,2.233,0,0,0-2.233,2.233,2.233,2.233,0,0,0,2.233,2.233A2.233,2.233,0,0,0-116.433,5948.315Z" transform="translate(153.847 -5835.252)" fill="#00dcff"/>
      <path id="Path_14450" data-name="Path 14450" d="M-134.369,5948.315a2.234,2.234,0,0,0-2.233-2.233,2.234,2.234,0,0,0-2.233,2.233,2.234,2.234,0,0,0,2.233,2.233A2.234,2.234,0,0,0-134.369,5948.315Z" transform="translate(160.872 -5835.252)" fill="#00dcff"/>
      <path id="Path_14451" data-name="Path 14451" d="M-152.306,5948.315a2.233,2.233,0,0,0-2.233-2.233,2.233,2.233,0,0,0-2.233,2.233,2.233,2.233,0,0,0,2.233,2.233A2.233,2.233,0,0,0-152.306,5948.315Z" transform="translate(167.896 -5835.252)" fill="#00dcff"/>
      <path id="Path_14452" data-name="Path 14452" d="M-170.591,5834.138a2.234,2.234,0,0,0-2.233-2.233,2.234,2.234,0,0,0-2.233,2.233,2.234,2.234,0,0,0,2.233,2.233A2.234,2.234,0,0,0-170.591,5834.138Z" transform="translate(175.058 -5790.536)" fill="#00dcff"/>
      <path id="Path_14453" data-name="Path 14453" d="M-170.591,5856.974a2.233,2.233,0,0,0-2.233-2.233,2.233,2.233,0,0,0-2.233,2.233,2.233,2.233,0,0,0,2.233,2.233A2.233,2.233,0,0,0-170.591,5856.974Z" transform="translate(175.058 -5799.479)" fill="#00dcff"/>
      <path id="Path_14454" data-name="Path 14454" d="M-170.591,5879.809a2.233,2.233,0,0,0-2.233-2.233,2.233,2.233,0,0,0-2.233,2.233,2.234,2.234,0,0,0,2.233,2.233A2.234,2.234,0,0,0-170.591,5879.809Z" transform="translate(175.058 -5808.423)" fill="#00dcff"/>
      <path id="Path_14455" data-name="Path 14455" d="M-170.591,5902.645a2.233,2.233,0,0,0-2.233-2.233,2.233,2.233,0,0,0-2.233,2.233,2.233,2.233,0,0,0,2.233,2.233A2.233,2.233,0,0,0-170.591,5902.645Z" transform="translate(175.058 -5817.366)" fill="#00dcff"/>
      <path id="Path_14456" data-name="Path 14456" d="M-170.591,5925.481a2.233,2.233,0,0,0-2.233-2.234,2.233,2.233,0,0,0-2.233,2.234,2.233,2.233,0,0,0,2.233,2.232A2.233,2.233,0,0,0-170.591,5925.481Z" transform="translate(175.058 -5826.31)" fill="#00dcff"/>
      <path id="Path_14457" data-name="Path 14457" d="M-170.591,5948.315a2.234,2.234,0,0,0-2.233-2.233,2.234,2.234,0,0,0-2.233,2.233,2.234,2.234,0,0,0,2.233,2.233A2.234,2.234,0,0,0-170.591,5948.315Z" transform="translate(175.058 -5835.252)" fill="#00dcff"/>
      <path id="Path_14458" data-name="Path 14458" d="M9.121,5788.139a2.233,2.233,0,1,0-2.233,2.233A2.233,2.233,0,0,0,9.121,5788.139Z" transform="translate(104.675 -5772.521)" fill="#00dcff"/>
      <path id="Path_14459" data-name="Path 14459" d="M-8.815,5788.139a2.233,2.233,0,0,0-2.233-2.233,2.234,2.234,0,0,0-2.233,2.233,2.234,2.234,0,0,0,2.233,2.233A2.233,2.233,0,0,0-8.815,5788.139Z" transform="translate(111.7 -5772.521)" fill="#00dcff"/>
      <path id="Path_14460" data-name="Path 14460" d="M-26.751,5788.139a2.234,2.234,0,0,0-2.233-2.233,2.234,2.234,0,0,0-2.233,2.233,2.234,2.234,0,0,0,2.233,2.233A2.234,2.234,0,0,0-26.751,5788.139Z" transform="translate(118.724 -5772.521)" fill="#00dcff"/>
      <path id="Path_14461" data-name="Path 14461" d="M-44.688,5788.139a2.233,2.233,0,0,0-2.233-2.233,2.233,2.233,0,0,0-2.233,2.233,2.233,2.233,0,0,0,2.233,2.233A2.233,2.233,0,0,0-44.688,5788.139Z" transform="translate(125.749 -5772.521)" fill="#00dcff"/>
      <path id="Path_14462" data-name="Path 14462" d="M-62.624,5788.139a2.234,2.234,0,0,0-2.233-2.233,2.233,2.233,0,0,0-2.233,2.233,2.233,2.233,0,0,0,2.233,2.233A2.234,2.234,0,0,0-62.624,5788.139Z" transform="translate(132.773 -5772.521)" fill="#00dcff"/>
      <path id="Path_14463" data-name="Path 14463" d="M-80.56,5788.139a2.234,2.234,0,0,0-2.233-2.233,2.234,2.234,0,0,0-2.233,2.233,2.234,2.234,0,0,0,2.233,2.233A2.234,2.234,0,0,0-80.56,5788.139Z" transform="translate(139.798 -5772.521)" fill="#00dcff"/>
      <path id="Path_14464" data-name="Path 14464" d="M-98.5,5788.139a2.233,2.233,0,0,0-2.233-2.233,2.233,2.233,0,0,0-2.233,2.233,2.233,2.233,0,0,0,2.233,2.233A2.233,2.233,0,0,0-98.5,5788.139Z" transform="translate(146.823 -5772.521)" fill="#00dcff"/>
      <path id="Path_14465" data-name="Path 14465" d="M-116.433,5788.139a2.233,2.233,0,0,0-2.233-2.233,2.233,2.233,0,0,0-2.233,2.233,2.233,2.233,0,0,0,2.233,2.233A2.233,2.233,0,0,0-116.433,5788.139Z" transform="translate(153.847 -5772.521)" fill="#00dcff"/>
      <path id="Path_14466" data-name="Path 14466" d="M-134.369,5788.139a2.234,2.234,0,0,0-2.233-2.233,2.234,2.234,0,0,0-2.233,2.233,2.234,2.234,0,0,0,2.233,2.233A2.234,2.234,0,0,0-134.369,5788.139Z" transform="translate(160.872 -5772.521)" fill="#00dcff"/>
      <path id="Path_14467" data-name="Path 14467" d="M-152.306,5788.139a2.233,2.233,0,0,0-2.233-2.233,2.233,2.233,0,0,0-2.233,2.233,2.233,2.233,0,0,0,2.233,2.233A2.233,2.233,0,0,0-152.306,5788.139Z" transform="translate(167.896 -5772.521)" fill="#00dcff"/>
      <path id="Path_14468" data-name="Path 14468" d="M9.121,5810.974a2.233,2.233,0,1,0-2.233,2.233A2.232,2.232,0,0,0,9.121,5810.974Z" transform="translate(104.675 -5781.465)" fill="#00dcff"/>
      <path id="Path_14469" data-name="Path 14469" d="M-8.815,5810.974a2.232,2.232,0,0,0-2.233-2.232,2.233,2.233,0,0,0-2.233,2.232,2.233,2.233,0,0,0,2.233,2.233A2.233,2.233,0,0,0-8.815,5810.974Z" transform="translate(111.7 -5781.465)" fill="#00dcff"/>
      <path id="Path_14470" data-name="Path 14470" d="M-26.751,5810.974a2.233,2.233,0,0,0-2.233-2.232,2.233,2.233,0,0,0-2.233,2.232,2.233,2.233,0,0,0,2.233,2.233A2.233,2.233,0,0,0-26.751,5810.974Z" transform="translate(118.724 -5781.465)" fill="#00dcff"/>
      <path id="Path_14471" data-name="Path 14471" d="M-44.688,5810.974a2.232,2.232,0,0,0-2.233-2.232,2.232,2.232,0,0,0-2.233,2.232,2.233,2.233,0,0,0,2.233,2.233A2.233,2.233,0,0,0-44.688,5810.974Z" transform="translate(125.749 -5781.465)" fill="#00dcff"/>
      <path id="Path_14472" data-name="Path 14472" d="M-62.624,5810.974a2.233,2.233,0,0,0-2.233-2.232,2.232,2.232,0,0,0-2.233,2.232,2.233,2.233,0,0,0,2.233,2.233A2.233,2.233,0,0,0-62.624,5810.974Z" transform="translate(132.773 -5781.465)" fill="#00dcff"/>
      <path id="Path_14473" data-name="Path 14473" d="M-80.56,5810.974a2.233,2.233,0,0,0-2.233-2.232,2.233,2.233,0,0,0-2.233,2.232,2.233,2.233,0,0,0,2.233,2.233A2.233,2.233,0,0,0-80.56,5810.974Z" transform="translate(139.798 -5781.465)" fill="#00dcff"/>
      <path id="Path_14474" data-name="Path 14474" d="M-98.5,5810.974a2.232,2.232,0,0,0-2.233-2.232,2.232,2.232,0,0,0-2.233,2.232,2.233,2.233,0,0,0,2.233,2.233A2.233,2.233,0,0,0-98.5,5810.974Z" transform="translate(146.823 -5781.465)" fill="#00dcff"/>
      <path id="Path_14475" data-name="Path 14475" d="M-116.433,5810.974a2.232,2.232,0,0,0-2.233-2.232,2.232,2.232,0,0,0-2.233,2.232,2.233,2.233,0,0,0,2.233,2.233A2.233,2.233,0,0,0-116.433,5810.974Z" transform="translate(153.847 -5781.465)" fill="#00dcff"/>
      <path id="Path_14476" data-name="Path 14476" d="M-134.369,5810.974a2.233,2.233,0,0,0-2.233-2.232,2.233,2.233,0,0,0-2.233,2.232,2.233,2.233,0,0,0,2.233,2.233A2.233,2.233,0,0,0-134.369,5810.974Z" transform="translate(160.872 -5781.465)" fill="#00dcff"/>
      <path id="Path_14477" data-name="Path 14477" d="M-152.306,5810.974a2.232,2.232,0,0,0-2.233-2.232,2.232,2.232,0,0,0-2.233,2.232,2.233,2.233,0,0,0,2.233,2.233A2.233,2.233,0,0,0-152.306,5810.974Z" transform="translate(167.896 -5781.465)" fill="#00dcff"/>
      <path id="Path_14478" data-name="Path 14478" d="M-170.591,5788.139a2.234,2.234,0,0,0-2.233-2.233,2.234,2.234,0,0,0-2.233,2.233,2.234,2.234,0,0,0,2.233,2.233A2.234,2.234,0,0,0-170.591,5788.139Z" transform="translate(175.058 -5772.521)" fill="#00dcff"/>
      <path id="Path_14479" data-name="Path 14479" d="M9.121,5766.138a2.233,2.233,0,1,0-2.233,2.234A2.233,2.233,0,0,0,9.121,5766.138Z" transform="translate(104.675 -5763.906)" fill="#00dcff"/>
      <path id="Path_14480" data-name="Path 14480" d="M-8.815,5766.138a2.233,2.233,0,0,0-2.233-2.232,2.233,2.233,0,0,0-2.233,2.232,2.234,2.234,0,0,0,2.233,2.234A2.234,2.234,0,0,0-8.815,5766.138Z" transform="translate(111.7 -5763.906)" fill="#00dcff"/>
      <path id="Path_14481" data-name="Path 14481" d="M-26.751,5766.138a2.233,2.233,0,0,0-2.233-2.232,2.233,2.233,0,0,0-2.233,2.232,2.234,2.234,0,0,0,2.233,2.234A2.234,2.234,0,0,0-26.751,5766.138Z" transform="translate(118.724 -5763.906)" fill="#00dcff"/>
      <path id="Path_14482" data-name="Path 14482" d="M-44.688,5766.138a2.233,2.233,0,0,0-2.233-2.232,2.233,2.233,0,0,0-2.233,2.232,2.233,2.233,0,0,0,2.233,2.234A2.234,2.234,0,0,0-44.688,5766.138Z" transform="translate(125.749 -5763.906)" fill="#00dcff"/>
      <path id="Path_14483" data-name="Path 14483" d="M-62.624,5766.138a2.233,2.233,0,0,0-2.233-2.232,2.233,2.233,0,0,0-2.233,2.232,2.233,2.233,0,0,0,2.233,2.234A2.234,2.234,0,0,0-62.624,5766.138Z" transform="translate(132.773 -5763.906)" fill="#00dcff"/>
      <path id="Path_14484" data-name="Path 14484" d="M-80.56,5766.138a2.233,2.233,0,0,0-2.233-2.232,2.233,2.233,0,0,0-2.233,2.232,2.234,2.234,0,0,0,2.233,2.234A2.234,2.234,0,0,0-80.56,5766.138Z" transform="translate(139.798 -5763.906)" fill="#00dcff"/>
      <path id="Path_14485" data-name="Path 14485" d="M-98.5,5766.138a2.233,2.233,0,0,0-2.233-2.232,2.233,2.233,0,0,0-2.233,2.232,2.234,2.234,0,0,0,2.233,2.234A2.233,2.233,0,0,0-98.5,5766.138Z" transform="translate(146.823 -5763.906)" fill="#00dcff"/>
      <path id="Path_14486" data-name="Path 14486" d="M-116.433,5766.138a2.233,2.233,0,0,0-2.233-2.232,2.233,2.233,0,0,0-2.233,2.232,2.233,2.233,0,0,0,2.233,2.234A2.234,2.234,0,0,0-116.433,5766.138Z" transform="translate(153.847 -5763.906)" fill="#00dcff"/>
      <path id="Path_14487" data-name="Path 14487" d="M-134.369,5766.138a2.233,2.233,0,0,0-2.233-2.232,2.233,2.233,0,0,0-2.233,2.232,2.234,2.234,0,0,0,2.233,2.234A2.234,2.234,0,0,0-134.369,5766.138Z" transform="translate(160.872 -5763.906)" fill="#00dcff"/>
      <path id="Path_14488" data-name="Path 14488" d="M-152.306,5766.138a2.233,2.233,0,0,0-2.233-2.232,2.233,2.233,0,0,0-2.233,2.232,2.234,2.234,0,0,0,2.233,2.234A2.233,2.233,0,0,0-152.306,5766.138Z" transform="translate(167.896 -5763.906)" fill="#00dcff"/>
      <path id="Path_14489" data-name="Path 14489" d="M-170.591,5766.138a2.233,2.233,0,0,0-2.233-2.232,2.233,2.233,0,0,0-2.233,2.232,2.234,2.234,0,0,0,2.233,2.234A2.234,2.234,0,0,0-170.591,5766.138Z" transform="translate(175.058 -5763.906)" fill="#00dcff"/>
      <path id="Path_14490" data-name="Path 14490" d="M-170.591,5810.974a2.233,2.233,0,0,0-2.233-2.232,2.233,2.233,0,0,0-2.233,2.232,2.233,2.233,0,0,0,2.233,2.233A2.233,2.233,0,0,0-170.591,5810.974Z" transform="translate(175.058 -5781.465)" fill="#00dcff"/>
    </g>
  </g>
</svg>
